<svg xmlns="http://www.w3.org/2000/svg" width="300" height="300" viewBox="0 0 300 300" fill="rgb(10,13,4)"><path d="M178.8,4.3c-0.5-0.2-1-0.3-1.4-0.3c-1.1-0.3-2.1-0.6-3.2-1c-1-0.2-1.9-0.5-2.9-0.6c-0.6-0.2-1.3-0.3-1.9-0.5c-1.3-0.3-2.5-0.5-3.7-0.6c-0.3,0-0.6-0.2-1.1-0.2c-1.4-0.2-2.7-0.3-4.1-0.5c-0.3,0-0.5,0-0.8-0.2c-1.3-0.2-2.5-0.2-4-0.3c-0.3,0-0.6,0-1,0C153.3,0,151.6,0,150,0c-1.8,0-3.3,0-4.9,0.2c-0.3,0-0.6,0-1,0c-1.3,0.2-2.5,0.2-4,0.3c-0.3,0-0.5,0-0.8,0.2c-1.4,0.2-2.7,0.3-4.1,0.5c-0.3,0-0.8,0.2-1.1,0.2c-1.3,0.2-2.5,0.5-3.7,0.6c-0.6,0.2-1.3,0.3-1.9,0.5c-1,0.2-1.9,0.5-2.9,0.6c-1.1,0.3-2.1,0.6-3.2,1c-0.5,0.2-1,0.3-1.4,0.3C81.3,16.6,52.5,53.7,52.5,97.3c0,52.9,25.2,103.9,46.4,137.3c22.8,36,45.2,59.4,46.2,60.4l4.8,4.9l4.9-4.8c3.8-3.7,92.7-92.4,92.7-198.1C247.3,53.7,218.5,16.7,178.8,4.3z M143.3,193.6c-18.2-3.2-32-19-32-38.1c0-21.3,17.4-38.7,38.7-38.7s38.7,17.4,38.7,38.7c0,20.1-15.3,36.6-34.9,38.6c-1.3,0.2-2.7,0.3-4,0.3c-0.8,0-1.6,0-2.4-0.2h-0.2H147c-0.2,0-0.3,0-0.5,0c-29-1.8-51.9-25.8-51.9-55.3c0-30.6,24.9-55.4,55.4-55.4s55.1,24.9,55.1,55.3c0,29.6-23.3,53.9-52.6,55.3c-0.2,0-0.3,0-0.5,0c24.9-1.3,44.6-21.8,44.6-47c0-26-21-47-47-47s-47,21-47,47c0,24.7,19.1,44.9,43.3,46.8C145.2,193.9,144.3,193.8,143.3,193.6z M152.9,194.3c33.9-1.4,60.9-29.5,60.9-63.6c0-35.2-28.5-63.7-63.7-63.7s-63.7,28.5-63.7,63.7c0,34.3,26.9,62.1,60.9,63.6l0,0c-0.3,0-0.6,0-0.8,0c-38.1-1.9-68.3-33.5-68.3-72c0-39.8,32.2-72,72-72s72,32.2,72,72c0,38.6-30.3,70.1-68.3,72C153.3,194.3,153,194.3,152.9,194.3L152.9,194.3z M154.5,194.3c-0.3,0-0.6,0-0.8,0l0,0c42.7-1.9,76.6-37.1,76.6-80.3c0-44.5-36-80.5-80.5-80.5s-80.3,35.9-80.3,80.4c0,43.2,33.9,78.4,76.6,80.3l0,0c-0.3,0-0.6,0-0.8,0c-46.8-2.4-84-41.3-84-88.8c0-49.1,39.7-88.7,88.7-88.7s88.7,39.7,88.7,88.7C238.6,153,201.5,191.9,154.5,194.3z M180.3,163.8c0-15.8-11.9-28.7-27.2-30.3c-1-0.2-2.1-0.2-3-0.2s-2.1,0-3,0.2c-15.3,1.6-27.2,14.5-27.2,30.3c0,16.7,13.5,30.4,30.4,30.4S180.3,180.6,180.3,163.8z"/></svg>