<?xml version="1.0" encoding="utf-8"?>
<!-- Generator: Adobe Illustrator 25.4.1, SVG Export Plug-In . SVG Version: 6.00 Build 0)  -->
<svg version="1.1" id="Слой_1" xmlns="http://www.w3.org/2000/svg" xmlns:xlink="http://www.w3.org/1999/xlink" x="0px" y="0px"
	 viewBox="0 0 630 160" style="enable-background:new 0 0 630 160;" xml:space="preserve">
<style type="text/css">
	.st0{fill:none;stroke:#284F94;stroke-miterlimit:10;}
</style>
<path class="st0" d="M0.4,28.1H23v89.2h27.8V28.1h22.6v89.2h27.9V28.1h22.5v104.2H0.4V28.1z M190.7,43.1v89.2h-23.4V43.1h-29.2v-15
	h82v15H190.7z M257,133.1c-1.7,0-3.2-0.1-4.6-0.2c-1.3-0.2-2.3-0.3-2.9-0.5l-1.8-17.5c0.6,0.2,1.5,0.4,2.8,0.7
	c1.3,0.3,2.7,0.4,4.3,0.4c3.6,0,6.6-0.6,9.1-1.7c2.4-1.1,4.5-2.8,6.2-5l-38.9-81h23.9l26.1,57l23.5-57h19l-32.8,75.6
	c-2.2,5-4.4,9.4-6.7,13c-2.2,3.7-4.7,6.8-7.4,9.1c-2.7,2.4-5.6,4.2-8.8,5.4C264.9,132.5,261.2,133.1,257,133.1z M407.5,132.3h-71.2
	l-3.2,27.2h-16.5v-42.2h7.3c2.6-2,4.9-4.8,6.9-8.4c2-3.6,3.7-8.3,5.1-14.1c1.7-7.2,3-16.2,4-27.1c0.9-10.9,1.5-24.1,1.7-39.7h71.1
	v89.2h14.4v42.2h-16.5L407.5,132.3z M353.5,96.6c-1.1,4.5-2.5,8.4-4.1,11.8c-1.6,3.4-3.4,6.4-5.5,9h46.2V43.1h-31.2
	c-0.6,12.1-1.3,22.5-2.1,31.3C356,83.2,354.9,90.6,353.5,96.6z M439.4,28.1h22.7v75.6l50.4-75.6h20.4v104.2h-22.7V57l-50.1,75.3
	h-20.7V28.1z M607,97.8h-13.3l-22.5,34.5h-25l27-39.3c-6.6-2.6-11.7-6.4-15.2-11.5c-3.5-5.1-5.2-10.9-5.2-17.5
	c0-11.9,4-20.9,12-26.9c8-6,18.9-9,32.7-9h32.2v104.2H607V97.8z M607,82.8V43.1h-9.3c-6.9,0-12.3,1.6-16,4.9
	c-3.8,3.3-5.7,8.4-5.7,15.2c0,6,1.7,10.7,5.2,14.3c3.5,3.5,8.7,5.3,15.8,5.3H607z"/>
</svg>
