<svg xmlns="http://www.w3.org/2000/svg" width="565" height="500" viewBox="0 0 565 500">
<style type="text/css">.st0{fill:#C6C3CB;}.st1{fill:#57545C;}.st2{fill:#77757E;}.st3{opacity:0.26;}.st4{fill:#3E3B43;}.st5{opacity:0.31;fill:#FFFFFF;enable-background:new;}.st6{fill:#FF5023;}</style>
<path class="st0" d="M353,104.4c14.1,25.7,21.7,55.3,21.7,86.7c0,73.6-43.3,137-105.8,166.3c-16.8,7.9-27.6,24.5-27.6,43V438H140.1v-37.9c0-18.4-10.8-35.1-27.4-42.9C38,321.8-9.1,237.5,12.9,145.7C28.9,78.8,82.1,26.8,149.3,12c39.1-8.6,76.7-4.8,109.6,8.3C258.9,20.3,318.2,40.9,353,104.4z"/>
<circle class="st1" cx="191.1" cy="191" r="106.5"/>
<g><circle class="st2" cx="191.1" cy="191" r="75.6"/><path class="st2" d="M325.8,492.6h-273c-12.5,0-22.7-10.2-22.7-22.7v-9.2c0-12.5,10.2-22.7,22.7-22.7h273	c12.5,0,22.7,10.2,22.7,22.7v9.2C348.5,482.4,338.3,492.6,325.8,492.6z"/></g>
<g class="st3"><path class="st4" d="M200.5,21.4c0,0,59.3,20.6,94.1,84c14.1,25.7,21.7,55.3,21.7,86.7c0,73.6-43.3,137-105.8,166.3	c-16.8,7.9-27.6,24.5-27.6,43v37.6h58.4v-37.6c0-18.5,10.9-35.2,27.6-43c62.5-29.3,105.8-92.8,105.8-166.3c0-31.3-7.6-61-21.7-86.7	c-34.9-63.5-94.1-84-94.1-84c-29.4-11.7-62.6-16-97.2-10.6C175.2,12.9,188.2,16.5,200.5,21.4z"/><path class="st4" d="M325.8,439.1h-58.4c12.5,0,22.7,10.2,22.7,22.7v9.2c0,12.5-10.2,22.7-22.7,22.7h58.4	c12.5,0,22.7-10.2,22.7-22.7v-9.2C348.5,449.3,338.3,439.1,325.8,439.1z"/></g>
<path class="st5" d="M117.5,210.1c4.8,20.8,18.1,38.4,36.2,48.7l108.3-92c-7.4-19.8-22.7-35.6-42.2-43.6L117.5,210.1z"/>
<circle class="st6" cx="315.2" cy="48.8" r="35.7"/>
<path d="M77.1,191c0,62.8,51.1,113.9,113.9,113.9S305,253.9,305,191S253.9,77.1,191.1,77.1C128.3,77.1,77.1,128.2,77.1,191z M290.2,191c0,54.6-44.5,99.1-99.1,99.1S92,245.7,92,191s44.5-99.1,99.1-99.1S290.2,136.4,290.2,191z"/>
<path d="M315.2,91.9c23.8,0,43.2-19.4,43.2-43.2S339,5.6,315.2,5.6C291.4,5.6,272,25,272,48.8S291.4,91.9,315.2,91.9z M315.2,20.5c15.6,0,28.3,12.7,28.3,28.3s-12.7,28.3-28.3,28.3c-15.6,0-28.3-12.7-28.3-28.3S299.6,20.5,315.2,20.5z"/>
<path d="M325.8,430.6h-77.1v-30.2c0-15.4,9.2-29.7,23.4-36.3c32.4-15.2,59.9-39.1,79.4-69.3c20-30.9,30.6-66.8,30.6-103.8c0-31.4-7.8-62.6-22.6-90.2c-1.9-3.6-6.4-5-10-3c-3.6,1.9-5,6.4-3,10c13.6,25.4,20.8,54.1,20.8,83.2c0,68.1-39.8,130.7-101.5,159.6c-19.4,9.1-31.9,28.6-31.9,49.8v30.2h-86.4v-30.5c0-21.1-12.4-40.6-31.7-49.7c-76.3-36.1-115.7-119.6-95.8-203c15.2-63.7,66.6-114,130.8-128.1c35.9-7.9,72.3-5.2,105.3,8c3.8,1.5,8.1-0.3,9.6-4.2c1.5-3.8-0.3-8.1-4.2-9.6c-35.8-14.2-75.2-17.2-114-8.7c-34.3,7.6-65.8,24.6-91,49.2c-25.2,24.7-42.9,55.8-51,89.9c-10.9,45.6-6,91.2,14.2,131.9c19.1,38.4,50.9,69.6,89.6,87.9c14.1,6.7,23.2,20.9,23.2,36.2v30.5H52.8c-16.6,0-30.1,13.5-30.1,30.1v9.2c0,16.6,13.5,30.1,30.1,30.1h273c16.6,0,30.1-13.5,30.1-30.1v-9.2C355.9,444.1,342.4,430.6,325.8,430.6z M341.1,469.9c0,8.4-6.8,15.3-15.3,15.3h-273c-8.4,0-15.3-6.8-15.3-15.3v-9.2c0-8.4,6.8-15.3,15.3-15.3h87.3h101.2h84.5c8.4,0,15.3,6.8,15.3,15.3L341.1,469.9L341.1,469.9z"/>
<path d="M221.9,114c-9.5-3.8-19.9-5.9-30.8-5.9c-45.8,0-83,37.2-83,83c0,6.2,0.7,12.2,2,18c0.1,0.4,0.2,0.8,0.3,1.2c8.7,36.5,41.6,63.7,80.7,63.7c45.8,0,83-37.2,83-83c0-34.4-21.1-64-51-76.6C222.7,114.3,222.3,114.1,221.9,114z M191.1,122.9c4.6,0,9.1,0.5,13.5,1.3L123,193.5c0-0.8-0.1-1.6-0.1-2.5C123,153.5,153.5,122.9,191.1,122.9z M191.1,259.2c-8.4,0-16.4-1.5-23.8-4.3l90.7-77c0.8,4.3,1.3,8.7,1.3,13.2C259.2,228.6,228.7,259.2,191.1,259.2z M253,162.7c-0.3,0.2-0.6,0.4-0.9,0.6l-96.5,82c-0.9,0.7-1.5,1.7-2,2.6c-13.2-8.7-23.2-21.9-27.8-37.3l95.1-80.8C235,136.7,246.4,148.4,253,162.7z"/>
<path d="M47.5,191c0-4.1-3.3-7.4-7.4-7.4s-7.4,3.3-7.4,7.4c0,87.4,71.1,158.5,158.5,158.5c4.1,0,7.4-3.3,7.4-7.4s-3.3-7.4-7.4-7.4C111.9,334.6,47.5,270.2,47.5,191z"/>
</svg>