<svg xmlns="http://www.w3.org/2000/svg" width="565" height="500" viewBox="0 0 565 500">
<style type="text/css">.st0{fill:#D7D5D9;}.st1{fill:#FF5023;}.st2{fill:#57545C;}.st3{opacity:0.25;fill:#2F2D30;enable-background:new;}.st4{fill:#FFFFFF;}.st5{fill:#3E3B43;}.st6{opacity:0.53;}.st7{fill:#2F2D30;}.st8{opacity:0.37;fill:#FFFFFF;enable-background:new;}</style>
<polygon class="st0" points="73.8,8.1 534.5,8.1 534.5,316 8.1,316 8.1,8.1 "/>
<path class="st1" d="M269.9,64.2c54,0,97.8,43.8,97.8,97.8s-43.8,97.8-97.8,97.8s-97.8-43.8-97.8-97.8c0-37.2,20.8-69.6,51.4-86.1C223.5,75.9,247.2,64.2,269.9,64.2z"/>
<rect x="8.1" y="316" class="st2" width="526.5" height="44.4"/>
<path class="st3" d="M486.5,8.1v219.1v4.3c0,27.6-22.4,50-50,50H6.7V316v44.5h526.4V316V8.1H486.5z"/>
<polygon class="st2" points="213.4,391.5 218.7,359.1 321.7,359.1 339.5,462.2 200.9,462.2 205.6,435.5 "/>
<polygon class="st4" points="245.4,109.3 319.5,162 245.4,214.7 "/>
<rect x="156.8" y="462.2" class="st5" width="230.6" height="29.7"/>
<g class="st6"><polygon class="st7" points="321.6,359.1 218.6,359.1 213.2,391.5 213.2,391.7 327.2,391.7 	"/></g>
<polygon class="st8" points="214,316 129.2,316 325.9,8.1 410.7,8.1 "/>
<path d="M534.5,0H73.8c-4.5,0-8.1,3.6-8.1,8.1s3.6,8.1,8.1,8.1h452.6v291.8H16.2V8.1c0-4.5-3.6-8.1-8.1-8.1S0,3.6,0,8.1V316v44.5c0,4.5,3.6,8.1,8.1,8.1h201.1l-3.8,21.5c-0.8,4.4,2.2,8.6,6.6,9.4c4.4,0.8,8.6-2.2,9.4-6.6l4.2-23.5h89.4l15,84.8H210.5l3-17.2c0.8-4.4-2.2-8.6-6.6-9.4c-4.4-0.8-8.6,2.2-9.4,6.6l-3.5,20.1h-37.3c-4.5,0-8.1,3.6-8.1,8.1v29.7c0,4.5,3.6,8.1,8.1,8.1h230.6c4.5,0,8.1-3.6,8.1-8.1v-29.7c0-4.5-3.6-8.1-8.1-8.1h-41.1l-15.1-85.6h203.4c4.5,0,8.1-3.6,8.1-8.1V316V8.1C542.6,3.6,539,0,534.5,0z M379.3,483.8H164.9v-13.6h36h138.7h39.8L379.3,483.8L379.3,483.8z M526.4,352.4H16.2v-28.3h510.3L526.4,352.4L526.4,352.4z"/>
<path d="M245.4,222.8c1.7,0,3.3-0.5,4.7-1.5l74.1-52.7c2.1-1.5,3.4-4,3.4-6.6s-1.3-5.1-3.4-6.6l-74.1-52.7c-2.5-1.8-5.7-2-8.4-0.6c-2.7,1.4-4.4,4.2-4.4,7.2v105.4c0,3,1.7,5.8,4.4,7.2C242.9,222.5,244.2,222.8,245.4,222.8z M253.5,125l52.1,37l-52.1,37V125z"/>
<path d="M227.4,83.1c3.9-2.1,5.4-7,3.3-11c-2.1-3.9-7-5.4-11-3.3c-34.3,18.5-55.6,54.3-55.6,93.2c0,58.4,47.5,105.9,105.9,105.9S375.8,220.4,375.8,162S328.3,56.2,269.9,56.2c-4.5,0-8.1,3.6-8.1,8.1s3.6,8.1,8.1,8.1c49.5,0,89.7,40.2,89.7,89.7s-40.2,89.7-89.7,89.7s-89.7-40.2-89.7-89.7C180.2,129,198.3,98.8,227.4,83.1z"/>
</svg>