<svg xmlns="http://www.w3.org/2000/svg" width="565" height="500" viewBox="0 0 565 500">
<style type="text/css">.st0{fill:#ACAAB1;}.st1{fill:#3E3B43;}.st2{opacity:0.47;fill:#2F2D30;enable-background:new;}.st3{opacity:0.41;fill:#3E3B43;enable-background:new;}.st4{fill:#FFD422;}.st5{opacity:0.23;}.st6{fill:#CCA400;}.st7{opacity:0.23;fill:#2F2D30;enable-background:new;}</style>
<polygon class="st0" points="105.9,328.2 105.9,369.8 105.9,419 105.9,460.4 146.5,460.4 146.5,328.2 "/>
<g><rect x="65.1" y="451.1" class="st1" width="121.2" height="41.5"/><path class="st1" d="M210.3,210.9v80.6c0,24.9-20.4,45.2-45.2,45.2H86.3c-24.9,0-45.2-20.4-45.2-45.2v-80.6H210.3L210.3,210.9z"/></g>
<path class="st2" d="M175.1,210.9v80.6c0,24.9-20.4,45.2-45.2,45.2h35.2c24.9,0,45.2-20.4,45.2-45.2v-80.6H175.1L175.1,210.9z"/>
<path class="st0" d="M41,182.3v-77.9V52.7C41,27.8,61.4,7.4,86.3,7.4h78.8c24.9,0,45.2,20.4,45.2,45.2v129.7"/>
<path class="st3" d="M164.5,7.4h-40.3c24.9,0,45.2,20.4,45.2,45.2v129.7h40.3V52.7C209.7,27.8,189.4,7.4,164.5,7.4z"/>
<rect x="105.3" y="236.6" class="st4" width="40.8" height="61.1"/>
<g class="st5"><rect x="105.3" y="267.2" class="st6" width="40.8" height="30.6"/></g>
<rect x="7.4" y="182.3" class="st4" width="236.3" height="28.5"/>
<rect x="105.3" y="328.2" class="st7" width="42.1" height="38.3"/>
<path d="M243.7,174.9h-26V52.7c0-29-23.6-52.7-52.7-52.7H86.3c-29,0-52.7,23.6-52.7,52.7c0,4.1,3.3,7.4,7.4,7.4s7.4-3.3,7.4-7.4c0-20.9,17-37.8,37.8-37.8h78.8c20.9,0,37.8,17,37.8,37.8v122.3h-21.1V56.6c0-4.1-3.3-7.4-7.4-7.4s-7.4,3.3-7.4,7.4v118.3h-33.8V44.4c0-4.1-3.3-7.4-7.4-7.4c-4.1,0-7.4,3.3-7.4,7.4v130.5H84.4V59.5c0-4.1-3.3-7.4-7.4-7.4c-4.1,0-7.4,3.3-7.4,7.4v115.4H48.5v-70.5c0-4.1-3.3-7.4-7.4-7.4s-7.4,3.3-7.4,7.4v70.5H7.4c-4.1,0-7.4,3.3-7.4,7.4v28.5c0,4.1,3.3,7.4,7.4,7.4h26.2v73.2c0,29,23.6,52.7,52.7,52.7h12.2v28.1c0,4.1,3.3,7.4,7.4,7.4s7.4-3.3,7.4-7.4v-28.1H139v99.4h-25.7v-29.3c0-4.1-3.3-7.4-7.4-7.4s-7.4,3.3-7.4,7.4v29.3H65.1c-4.1,0-7.4,3.3-7.4,7.4v41.5c0,4.1,3.3,7.4,7.4,7.4h121.2c4.1,0,7.4-3.3,7.4-7.4v-41.5c0-4.1-3.3-7.4-7.4-7.4h-32.4v-99.4h11.2c29,0,52.7-23.6,52.7-52.7v-73.2h26c4.1,0,7.4-3.3,7.4-7.4v-28.5C251.2,178.2,247.8,174.9,243.7,174.9z M178.8,485.1H72.5v-26.7h106.3L178.8,485.1L178.8,485.1z M202.9,291.5c0,20.9-17,37.8-37.8,37.8H86.3c-20.9,0-37.8-17-37.8-37.8v-73.2h154.4L202.9,291.5L202.9,291.5z M236.3,203.5h-26c0,0,0,0,0,0c0,0,0,0,0,0H41c0,0,0,0,0,0c0,0,0,0,0,0H14.9v-13.7h221.5L236.3,203.5L236.3,203.5z"/>
<path d="M105.3,305.2h40.8c4.1,0,7.4-3.3,7.4-7.4v-61.1c0-4.1-3.3-7.4-7.4-7.4h-40.8c-4.1,0-7.4,3.3-7.4,7.4v61.1C97.8,301.9,101.2,305.2,105.3,305.2z M112.7,290.3v-15.7h26v15.7H112.7z M138.7,244v15.7h-26V244H138.7L138.7,244z"/>
</svg>