<svg xmlns="http://www.w3.org/2000/svg" width="565" height="500" viewBox="0 0 565 500">
<style type="text/css">.st0{fill:#FF6243;}.st1{opacity:0.4;fill:#891C00;enable-background:new    ;}.st2{fill:#FFE477;}.st3{opacity:0.54;}.st4{fill:#EEBF00;}.st5{fill:#52A2E7;}.st6{fill:#3C66B1;}.st7{fill:#C6C3CB;}.st8{opacity:0.43;fill:#3C66B1;enable-background:new    ;}.st9{opacity:0.4;}.st10{fill:#891C00;}</style>
<polygon class="st0" points="282.6,492.6 51.5,492.6 7.4,149.4 244.3,149.4 "/>
<g><polygon class="st1" points="96.2,149.4 120.6,492.6 83.4,492.6 39.3,149.4 	"/><polygon class="st1" points="237.8,492.6 254.9,359.6 305.8,492.5 	"/><polygon class="st1" points="225,149.4 200.6,492.6 160.5,492.6 160.5,149.4 	"/></g>
<path class="st2" d="M23.2,149.3c0,0-15.3-8.4-5.9-20.2s16.3-5.4,18.7-21.2c0,0-1.3-10.9,6.8-20.6C53,74.8,63.1,76.8,63.1,76.8C77.9,62,81.4,34.9,105,38.4c23.7,3.5,25.6,4.4,33.5-12.3c7.9-16.8,24.8-25.6,44.7-7.9s4.6,33.5,17.5,34.5c12.8,1,22.7-14.8,39-4.9s31.1,16.8,17.8,25.6c-13.3,8.9,2,20.7,13.8,18.7c11.8-2,5.9,32.5,18.2,32.1c12.3-0.5,11.2,25.3,11.2,25.3L23.2,149.3z"/>
<g class="st3"><path class="st4" d="M290.3,124.2c-12.3,0.5-6.4-34-18.2-32.1c-11.8,2-27.1-9.9-13.8-18.7c13.3-8.9-1.5-15.8-17.8-25.6	c-15.6-9.4-25.3,4.6-37.3,5c12.3,7.4,20.4,13.4,9.4,20.7c-13.3,8.9,2,20.7,13.8,18.7c11.8-2,5.9,32.5,18.2,32.1	c12.2-0.5,11.2,24.9,11.2,25.2l45.7,0C301.5,149.4,302.7,123.7,290.3,124.2z"/><path class="st4" d="M155.9,52.7c12.8,1,22.7-14.8,39-4.9c0.4,0.2,0.7,0.4,1.1,0.7c-1.3-6,2.3-17.6-11.9-30.3	C166.1,2,150.5,7.8,141.9,21.5C156.5,37.9,143.9,51.7,155.9,52.7z"/></g>
<polygon class="st5" points="248.2,271.2 240.3,188.9 473.4,188.9 444.3,492.5 269.4,492.5 254.1,332.8 "/>
<polygon class="st0" points="417.4,27.4 401.3,11.3 347.6,65.2 347.6,65.2 347.6,154.9 370.3,154.9 370.3,74.6 "/>
<path class="st6" d="M379.2,188.9c0,0-22.3,31.1-22.3,125.2s74.3,67.9,74.3,178.5h-48.7c0-110.6-74.3-84.4-74.3-178.5s22.3-125.2,22.3-125.2L379.2,188.9L379.2,188.9z"/>
<polygon class="st7" points="458.1,146.4 475.9,146.4 487.7,188.9 229,188.9 240.8,146.4 398.9,146.4 "/>
<polygon class="st8" points="475.9,146.4 458.1,146.4 441.9,146.4 453.7,188.9 439.4,188.9 410.3,491.6 444.3,491.6 473.3,188.9 487.7,188.9 "/>
<g class="st9"><rect x="347.6" y="108.7" class="st10" width="22.7" height="37.7"/></g>
<path d="M80.9,135c3.3,0,6.3-2.2,7.2-5.6c0-0.1,3-10.5,10.4-11.8c3.8-0.7,6.4-0.6,8.7-0.6c5.8,0.1,10.4-0.4,15.9-7.1c0.5-0.6,1.1-1.3,1.7-2.1c7-8.7,13.6-15.7,23.7-12.4c4.9,1.6,8.5,3.7,11.9,5.8c7.7,4.6,15.7,9.4,32.2,3.1c3.8-1.5,5.7-5.7,4.3-9.6c-1.5-3.8-5.7-5.7-9.6-4.3c-9.8,3.8-12.6,2.1-19.3-2c-3.7-2.3-8.4-5.1-14.9-7.2c-20.7-6.7-33.6,9.5-39.8,17.2c-0.5,0.7-1.1,1.3-1.5,1.9c-1.1,1.4-1.6,1.6-1.6,1.6c-0.4,0.1-1.6,0.1-2.7,0.1c-2.7,0-6.3-0.1-11.5,0.8c-16.9,3-22,21.9-22.2,22.7c-1,4,1.4,8,5.3,9C79.7,135,80.3,135,80.9,135z"/>
<path d="M494.8,186.9L483,144.4c-0.9-3.2-3.8-5.4-7.1-5.4h-17.8c-4.1,0-7.4,3.3-7.4,7.4c0,4.1,3.3,7.4,7.4,7.4h12.2l7.7,27.7H238.7l7.7-27.7h101.2h22.7h28.6c4.1,0,7.4-3.3,7.4-7.4c0-4.1-3.3-7.4-7.4-7.4h-21.2V77.7l44.9-45c2.9-2.9,2.9-7.6,0-10.5L406.5,6.1c-1.4-1.4-3.3-2.2-5.2-2.2c0,0,0,0,0,0c-2,0-3.8,0.8-5.2,2.2L342.3,60c-1.4,1.4-2.2,3.3-2.2,5.2V139H310c-1.6-10.1-7-23.1-19.9-23.2c-1.1-2-2.1-7.3-2.7-10.6c-0.8-4.5-1.7-9.1-3.3-12.8c-4-9.1-11.2-9-14.1-8.5c-4.6,0.8-9.4-2.1-10.3-3.7c0.2-0.3,0.8-0.9,1.8-1.6c5.7-3.8,8.6-8.3,8.5-13.4c-0.2-9.2-9.7-14.8-21.7-21.9c-1.6-0.9-3.2-1.9-4.8-2.9c-13.4-8.1-24-3.1-31.8,0.6c-3.6,1.7-6.7,3.2-9.5,3.3c0-0.6-0.1-1.3-0.1-1.9c-0.2-7-0.6-18.8-13.9-30.7c-13.3-11.8-24.7-12.5-32-11c-10.2,2.1-18.9,9.7-24.3,21.3c-2.6,5.4-4.6,9.2-6.3,9.8c-2.3,0.9-8.5,0-16.9-1.3l-2.6-0.4c-20.8-3-30,12.5-37.4,25c-3.3,5.6-6.7,11.3-10.8,15.5c-2.9,2.9-2.9,7.6,0,10.5c2.9,2.9,7.6,2.9,10.5,0c5.5-5.5,9.4-12.1,13.1-18.5c7.5-12.8,12-19.4,22.5-17.9l2.6,0.4c11.8,1.7,18.3,2.7,24.3,0.5c7.1-2.7,10.5-8.9,14.5-17.4c3.4-7.2,8.5-12,13.9-13.1c7.2-1.5,14.4,3.3,19.1,7.6c8.6,7.7,8.8,14.3,9,20.1c0.1,5,0.5,15.3,12.8,16.2c6.9,0.5,12.7-2.2,17.9-4.6c7.4-3.5,11.6-5.1,17.8-1.3c1.7,1,3.3,2,4.9,2.9c4.7,2.8,11.5,6.8,13.9,9.3c-0.3,0.3-0.7,0.6-1.3,0.9c-7.4,5-10.2,12.1-7.4,19.1c3.3,8.4,14.4,14.3,24.8,13.3c0.9,2.1,1.6,6.4,2.2,9.2c1.7,9.3,4.3,23.2,16.9,22.7c0,0,0,0,0.1,0c2.3,0,4.1,4.3,5.1,8.4h-54.1c-2.4,0-4.6,1.2-6,3H27.1c-0.1-0.1-0.2-0.1-0.3-0.2c-1.1-0.6-4.6-3.2-5.1-5.6c-0.1-0.4-0.3-1.5,1.4-3.6c2.9-3.6,5.1-4.8,7.8-6.2c5.9-3.1,10.6-6.4,12.5-18.5c0.6-4-2.1-7.8-6.2-8.5c-4-0.6-7.8,2.1-8.5,6.2c-0.9,5.6-1.5,6-4.7,7.7c-3.2,1.7-7.7,4-12.5,10.1c-4.9,6.2-5,12-4.3,15.7c0.2,1,0.5,1.9,0.8,2.8H7.4c-2.1,0-4.1,0.9-5.6,2.5c-1.4,1.6-2.1,3.7-1.8,5.8l44.1,343.2c0.5,3.7,3.6,6.5,7.3,6.5h31.9c0,0,0,0,0,0c0,0,0,0,0,0h154.3c0,0,0,0,0,0c0,0,0,0,0,0h44.7c0.3,0,0.6,0,0.9-0.1h160.9c3.8,0,7-2.9,7.4-6.7l28.5-297h7.5c2.3,0,4.5-1.1,5.9-2.9C495,191.5,495.4,189.1,494.8,186.9z M355,68.3l46.3-46.5l5.6,5.6l-41.8,42c-1.4,1.4-2.2,3.3-2.2,5.2V139h-8L355,68.3z M276.1,485.2l-14.7-153c-0.4-4.1-4-7.1-8.1-6.7c-4.1,0.4-7,4-6.7,8.1l14.5,151.7h-15.1l8.1-62.8c0.5-4.1-2.3-7.8-6.4-8.3c-4.1-0.5-7.8,2.3-8.3,6.4l-8.3,64.7h-22.7l20.5-289h4.5l7.2,75.6c0.4,4.1,4,7,8.1,6.7c4.1-0.4,7-4,6.7-8.1l-7.1-74.2h70c-7,16.7-17.7,52.6-17.7,117.8c0,48.2,18.8,67.4,37,86c18.3,18.7,35.6,36.3,37.1,85.2L276.1,485.2L276.1,485.2z M167.9,485.2V156.8H217l-23.3,328.4L167.9,485.2L167.9,485.2z M127.5,485.2l-23.3-328.4h49v328.4H127.5z M89.9,485.2L47.8,156.8h41.6l23.3,328.4L89.9,485.2L89.9,485.2z M348.4,389.6c-17.6-18-32.8-33.5-32.8-75.6c0-73.9,14.1-107.9,19.2-117.8h32.3c-7,16.7-17.7,52.6-17.7,117.8c0,48.2,18.8,67.4,37,86c18.3,18.7,35.6,36.3,37.1,85.2h-33.9C388,430.1,367,408.7,348.4,389.6z M15.8,156.8h17L75,485.2H58L15.8,156.8z M438.1,479.5c-2.9-50.9-23.1-71.5-41.1-89.9c-17.6-18-32.8-33.5-32.8-75.6c0-73.9,14.1-107.9,19.2-117.8h81.8L438.1,479.5z"/>
</svg>