<svg xmlns="http://www.w3.org/2000/svg" width="565" height="500" viewBox="0 0 565 500">
<style type="text/css">.st0{fill:#FFCD00;}.st1{opacity:0.29;fill:#CCA400;enable-background:new;}.st2{opacity:0.32;}.st3{fill:#FFFFFF;}.st4{opacity:0.24;}</style>
<path class="st0" d="M13.5,237.3c0,0-5.3,38.2,14.9,57.4s58.1,12.1,58.1,12.1s5.3-38.2-14.9-57.4c-7.9-7.5-18.6-11-28.6-12.5L13.5,237.3z"/>
<path class="st1" d="M86.4,284.8c0,0-38,7.1-58.1-12.1c-9.9-9.5-13.6-23.4-14.9-35.3c-0.5,4-4.1,39,14.9,57.1c20.2,19.2,58.1,12.1,58.1,12.1s1.3-9.9,0.1-22.2C86.5,284.6,86.4,284.8,86.4,284.8z"/>
<path class="st0" d="M49.7,332.3c26.6-8.1,57.4,15.3,57.4,15.3S94.7,384.1,68,392.2c-26.6,8.1-57.4-15.3-57.4-15.3S23.1,340.4,49.7,332.3z"/>
<path class="st1" d="M68,376.5c-19.9,6.1-42.1-5.5-52-11.7c-3.6,6.8-5.4,12-5.4,12s30.7,23.4,57.4,15.3c26.6-8.1,39.1-44.7,39.1-44.7s-2-1.5-5.4-3.6C95.8,355.2,84.6,371.4,68,376.5z"/>
<path class="st0" d="M144.5,262.5c7.5-2.3,13.1-2.5,13.1-2.5s15.7,35.3,1.8,59.3c-14,24.1-52.4,27.8-52.4,27.8s-15.7-35.3-1.8-59.3c2.7-4.6,6.3-8.5,10.3-11.7C115.3,276.1,124.2,268.9,144.5,262.5z"/>
<path class="st1" d="M159.3,301.5c-14,24.1-52.4,27.8-52.4,27.8s-5.2-11.7-7-26.3c-3,21.2,7,43.6,7,43.6s38.4-3.7,52.4-27.8c5.9-10.2,6.5-22.4,5.2-33C163.7,291.2,162.2,296.6,159.3,301.5z"/>
<path class="st0" d="M114.1,389.7c25.5-11.1,58.7,8.6,58.7,8.6s-8.2,37.7-33.6,48.9c-25.5,11.1-58.7-8.6-58.7-8.6S88.5,400.9,114.1,389.7z"/>
<path class="st1" d="M139.1,429.5c-19.5,8.5-43.6-1.1-53.8-6c-3.5,8.5-4.9,15-4.9,15s33.2,19.8,58.7,8.6c25.5-11.1,33.6-48.9,33.6-48.9s-1.8-1.1-4.9-2.6C162.9,407.4,154,423,139.1,429.5z"/>
<path class="st0" d="M167.7,339c12.7-24.8,50.9-30.6,50.9-30.6s17.6,34.4,5,59.1c-12.7,24.8-50.9,30.6-50.9,30.6S155.1,363.9,167.7,339z"/>
<path class="st1" d="M223.6,352.1c-12.7,24.8-50.9,30.6-50.9,30.6s-7-13.7-9-30c-3.2,22.2,9,46,9,46s38.2-5.9,50.9-30.6c4.7-9.2,5.2-19.6,4-29.2C227,343.4,225.7,347.8,223.6,352.1z"/>
<path class="st0" d="M178.4,432.4c15.6-23.1,52.7-22.6,52.7-22.6s14.8,34.6-0.8,57.7c-15.6,23.1-54.2,24.1-54.2,24.1S162.8,455.4,178.4,432.4z"/>
<path class="st1" d="M230.3,449.8c-15.6,23.1-54.2,24.1-54.2,24.1s-3.5-9.5-4.8-21.7c-2.4,19.5,4.8,39.2,4.8,39.2s38.6-1.1,54.2-24.1c7.3-10.8,8-24.1,6.6-35.3C236,438.2,234,444.3,230.3,449.8z"/>
<g><path class="st0" d="M494.8,249.4c19.7-19.7,58.1-12.1,58.1-12.1s5.3,38.2-14.9,57.4c-20.1,19.2-58.1,12.1-58.1,12.1	s-2.4-11.9,0.4-25.5C481.1,277.6,478.2,266,494.8,249.4z"/><path class="st0" d="M516.6,332.2c-26.6-8.1-57.3,15.3-57.3,15.3s12.4,36.5,39,44.7s57.3-15.3,57.3-15.3S543.2,340.2,516.6,332.2z"	/><path class="st0" d="M461.3,287.7c-14-24.1-52.4-27.8-52.4-27.8s-15.7,35.2-1.8,59.3s52.4,27.8,52.4,27.8S475.3,311.8,461.3,287.7z	"/><path class="st0" d="M452.4,389.6c-25.5-11.1-58.7,8.6-58.7,8.6s8.2,37.7,33.6,48.8c25.5,11.1,58.7-8.6,58.7-8.6	S477.9,400.7,452.4,389.6z"/><path class="st0" d="M398.7,339c-12.6-24.8-50.8-30.6-50.8-30.6s-17.6,34.4-5,59.1c12.6,24.8,50.8,30.6,50.8,30.6	S411.4,363.7,398.7,339z"/><path class="st0" d="M388.1,432.2c-15.6-23-53.9-24.1-54.2-24.1c0,0-13.3,36.3,2.3,59.3c15.6,23,54.2,24.1,54.2,24.1	S403.7,455.3,388.1,432.2z"/><polygon class="st0" points="81.3,20.4 87.5,8.4 112.5,57.1 166.6,65.9 128,104.8 136.4,158.9 87.5,134.2 38.6,158.9 47,104.8 	8.4,65.9 62.5,57.1 66.1,50.1 	"/><polygon class="st0" points="473.1,15.7 476.8,8.4 501.8,57.1 555.9,65.9 517.3,104.8 525.7,158.9 476.8,134.2 427.9,158.9 	436.4,104.8 397.7,65.9 451.8,57.1 455.5,50.1 	"/><polygon class="st0" points="280.2,126 284.2,118.2 309.3,167 363.4,175.7 324.7,214.6 333.1,268.7 284.2,244 235.3,268.7 	243.7,214.6 205.1,175.7 259.2,167 262.5,160.6 	"/><path class="st0" d="M316.4,348.2c0,27.9-31,48.3-31,48.3s-31.7-20.4-31.7-48.3c0-27.9,31.3-50.4,31.3-50.4	S316.4,320.4,316.4,348.2z"/></g>
<g><path class="st1" d="M285.3,375.4c0,0-23.9-15.4-30.2-37.7c-0.9,3.5-1.5,7-1.5,10.7c0,27.9,31.7,48.3,31.7,48.3s31-20.4,31-48.3	c0-3.6-0.6-7.2-1.5-10.6C308.8,359.9,285.3,375.4,285.3,375.4z"/><path class="st1" d="M479.7,284.8c0,0,38,7.1,58.1-12.1c9.9-9.5,13.6-23.4,14.9-35.3c0.5,4,4.1,39-14.9,57.1	c-20.2,19.2-58.1,12.1-58.1,12.1s-1.3-9.9-0.1-22.2C479.7,284.6,479.7,284.8,479.7,284.8z"/><path class="st1" d="M498.1,376.5c19.9,6.1,42.1-5.5,52-11.7c3.6,6.8,5.4,12,5.4,12s-30.7,23.4-57.4,15.3	c-26.6-8.1-39.1-44.7-39.1-44.7s2-1.5,5.4-3.6C470.4,355.2,481.4,371.4,498.1,376.5z"/><path class="st1" d="M406.8,301.5c14,24.1,52.4,27.8,52.4,27.8s5.2-11.7,7-26.3c3,21.2-7,43.6-7,43.6s-38.4-3.7-52.4-27.8	c-5.9-10.2-6.5-22.4-5.2-33C402.4,291.2,404,296.6,406.8,301.5z"/><path class="st1" d="M427,429.5c19.5,8.5,43.6-1.1,53.8-6c3.5,8.5,4.9,15,4.9,15s-33.2,19.8-58.7,8.6	c-25.5-11.1-33.6-48.9-33.6-48.9s1.8-1.1,4.9-2.6C403.1,407.4,412.2,423,427,429.5z"/><path class="st1" d="M342.5,352.1c12.7,24.8,50.9,30.6,50.9,30.6s7-13.7,9-30c3.2,22.2-9,46-9,46s-38.2-5.9-50.9-30.6	c-4.7-9.2-5.2-19.6-4-29.2C339.1,343.4,340.4,347.8,342.5,352.1z"/><path class="st1" d="M335.8,449.8C351.4,472.9,390,474,390,474s3.5-9.5,4.8-21.7c2.4,19.5-4.8,39.2-4.8,39.2s-38.6-1.1-54.2-24.1	c-7.3-10.8-8-24.1-6.6-35.3C330.1,438.2,332.1,444.3,335.8,449.8z"/></g>
<g class="st2"><path class="st3" d="M128.7,59.7l-16.2-2.6l-25-48.7l-6.2,12.1L66.1,50.1l-3.6,7.1L8.4,65.9L47,104.8l-0.8,4.9	C68.9,103.4,101.6,89.6,128.7,59.7z"/></g>
<g class="st4"><path class="st3" d="M513.8,59l-11.9-1.9l-25-48.7l-3.7,7.3l-17.6,34.4l-3.7,7.1L397.6,66l38.7,38.9l-0.8,5.1	C459.1,103.6,492.5,89.9,513.8,59z"/></g>
<g class="st4"><path class="st3" d="M321.2,168.9l-11.9-1.9l-25-48.7l-3.7,7.3l-17.6,34.4l-3.7,7.1l-54.1,8.7l38.7,38.9l-0.8,5.1	C266.4,213.5,299.9,199.8,321.2,168.9z"/></g>
<path d="M519.1,324.1c-13.1-4-26.5-1.7-37.9,2.3c1.7-3.5,3.2-6.9,4.6-10.5c2.9,0.3,6.4,0.5,10.4,0.5c14.2,0,34-2.8,47.6-15.7c23-21.9,17.6-62.9,17.4-64.6c-0.5-3.6-3.2-6.4-6.8-7.1c-1.7-0.4-42.4-7.7-65.4,14.2c-3.4,3.2-3.5,8.5-0.3,11.9c3.2,3.4,8.5,3.5,11.9,0.3c12.3-11.8,33.9-11.6,44.5-10.7c0.5,12.1-1.3,32.9-12.8,43.9c-12.3,11.7-33.9,11.6-44.4,10.7c-0.1-4.3-0.1-10.4,0.8-16.9c0.6-4.6-2.5-8.8-7.1-9.5c-4.6-0.6-8.8,2.5-9.5,7.1c-0.4,3-0.7,5.9-0.8,8.7c-0.8-1.8-1.6-3.5-2.6-5.1c-15.9-27.4-57.1-31.7-58.8-32c-3.6-0.4-7,1.6-8.5,4.9c-0.7,1.6-17.4,39.4-1.3,66.9c9.8,16.9,29.2,25,43,28.8c-9.7,10.1-21,18.7-33.4,25.5c2.8-12.8,3.7-28.8-3.4-42.6c-14.5-28.3-55.3-34.8-57-35.1c-3.6-0.6-7.1,1.3-8.7,4.4c-0.8,1.6-19.4,38.4-5,66.7c5.4,10.7,14.6,18.2,24.1,23.5c-18.5,2.9-37.8,2.4-56.9-1.9c9.9-9.7,22.1-25.5,22.1-44.7c0-31.7-33.4-56.2-34.8-57.2c-2.9-2.1-6.8-2.1-9.8,0c-1.4,1.1-34.8,25.4-34.8,57.2c0,19.8,13.1,35.9,23.3,45.6c-22,6.8-44.9,8.1-67,4c11.2-5.4,23-13.6,29.5-26.3c14.5-28.3-4.2-65.3-5-66.8c-1.6-3.2-5.1-5-8.7-4.4c-1.8,0.3-42.6,6.8-57.1,35.1c-7.8,15.3-5.9,33.1-2.5,46.4c-13.6-7.7-25.6-17.5-35.8-28.9c13.9-3.6,34.3-11.7,44.4-29.2c15.9-27.4-0.6-65.3-1.3-66.9c-1.5-3.3-4.9-5.3-8.5-4.9c-0.3,0-6.2,0.6-14.4,2.8c-4.5,1.1-7.2,5.7-6,10.2c1.2,4.5,5.7,7.2,10.2,6c2-0.5,3.9-0.9,5.5-1.3c3.4,10.1,8.5,31,0,45.8c-8.5,14.7-29.3,20.6-39.7,22.6c-3.4-10.1-8.5-31,0-45.8c2-3.4,4.7-6.6,8.3-9.4c3.6-2.9,4.2-8.2,1.3-11.8c-2.9-3.6-8.2-4.2-11.8-1.3c-5.1,4.1-9.2,8.8-12.3,14c-1,1.7-1.8,3.5-2.6,5.2c-0.8-14.1-4.7-32.9-17.9-45.5c-8.1-7.8-19.3-12.7-33.2-14.7c-4.6-0.6-8.8,2.5-9.5,7.1c-0.6,4.6,2.5,8.8,7.1,9.5c10.4,1.5,18.5,4.9,24.1,10.2c12.3,11.8,13.2,33.3,12.8,43.9c-10.7,0.9-32.2,1.1-44.5-10.7c-16.7-15.9-12.4-49.9-12.3-50.2c0.6-4.6-2.5-8.8-7.1-9.5s-8.8,2.5-9.5,7.1c-0.1,1.7-5.5,42.7,17.5,64.6c13.6,13,33.4,15.7,47.6,15.7c4,0,7.5-0.2,10.4-0.5c1.3,3.6,2.8,7.1,4.4,10.5c-11.3-4-24.8-6.3-37.7-2.3c-30.4,9.3-44,48.4-44.6,50.1c-1.1,3.4,0,7.2,2.9,9.4c1.2,0.9,24.9,18.7,50.5,18.7c4.7,0,9.6-0.6,14.3-2c19.4-5.9,32-24.1,38.7-36.8c4.7,5.4,9.7,10.3,15.1,15c-4.6,0.6-9.1,1.7-13.5,3.6l0,0c-29.1,12.7-38.2,53-38.5,54.8c-0.8,3.5,0.8,7.1,3.9,9c1.1,0.7,22.5,13.2,45.5,13.2c7,0,14-1.1,20.8-4.1c21-9.2,31.6-32.8,36-45.9c3.4,1.1,6.8,2.1,10.3,3c-6.6,3.7-12.6,8.8-17.3,15.6c-17.8,26.3-3.8,65.3-3.2,66.9c1.2,3.3,4.4,5.5,7.9,5.5c0.1,0,0.1,0,0.2,0c1.8-0.1,43.1-1.6,60.9-27.9c12.7-18.7,8.6-42.9,4.9-56.1c11.8-1.1,23.5-3.7,35-7.5c2.8-0.9,5.5-2,8.3-3c12.5,3.9,25.4,6.3,38.5,7.2c-3.3,12.9-7.8,39.6,5.5,59.3c17.8,26.3,59.1,27.8,60.9,27.8c0.1,0,0.1,0,0.2,0c3.5,0,6.6-2.2,7.9-5.5c0.6-1.6,14.5-40.6-3.2-66.8l0,0c-5.7-8.5-13.8-14.3-22.3-18.4c4.8-1.1,9.5-2.3,14.2-3.7c3.5,11.7,14,39.3,37.1,49.4c6.8,3,13.8,4.1,20.8,4.1c23,0,44.4-12.5,45.5-13.1c3.1-1.8,4.7-5.4,3.9-9c-0.4-1.7-9.4-42-38.5-54.7c-5.3-2.3-10.8-3.5-16.3-3.9c6.2-4.9,12-10.2,17.3-15.8c6.5,12.8,19.3,31.7,39.2,37.9c4.7,1.5,9.6,2,14.3,2c25.6,0,49.3-17.8,50.5-18.7c2.9-2.2,4-5.9,2.9-9.4C563.1,372.5,549.4,333.4,519.1,324.1z M65.6,384.2c-16.3,5-35.6-4.9-44.6-10.4c5-11.1,15.9-28.8,31.2-33.4c16.3-5,35.6,4.9,44.6,10.4C91.7,361.8,80.8,379.5,65.6,384.2z M350.4,363.6c-7.8-15.2-1.5-35.8,2.5-45.7c11.8,3,31.1,10.6,38.4,24.8c7.4,14.5,2,33.9-1.9,44.2c-0.8,0.3-1.7,0.6-2.5,0.9C375,384.7,357.3,377.1,350.4,363.6z M262.1,348.2c0-17.1,15-32.5,23-39.6c8,7.1,22.9,22.6,22.9,39.6c0,17-14.9,31.4-22.6,37.7C277.4,379.6,262.1,365.1,262.1,348.2z M175.2,342.8c7.8-15.2,28.1-22.2,38.4-24.8c3.9,9.9,10.2,30.5,2.5,45.7c-7.8,15.2-28.2,22.2-38.5,24.8C173.2,377.3,168,357.1,175.2,342.8z M135.7,439.5c-15.6,6.8-35.8-0.7-45.4-5.2c3.2-10.2,11.5-30.1,27.1-36.8l0,0c12.6-5.5,28.3-1.6,38.9,2.5c0.3,0.1,0.6,0.4,0.9,0.5c1.8,0.9,3.7,1.8,5.5,2.6C159.4,413.2,151.2,432.8,135.7,439.5z M223.3,462.8c-9.6,14.1-30.7,18.6-41.3,19.9c-3-11.8-5.7-32.4,3.2-45.6c9.5-14.1,30-17.6,39.9-18.6C228.3,428.2,232.9,448.9,223.3,462.8z M381.1,436.9L381.1,436.9c9.5,14.1,5.9,35.3,3.2,45.6c-12.1-1.6-32.2-6.7-41.1-19.9c-9.5-14.1-5.9-35.3-3.2-45.6C350.6,418.4,371.6,422.8,381.1,436.9z M476.2,434.2c-11,5.1-30.8,11.6-45.4,5.1c-15.7-6.8-23.8-26.7-27.1-36.9c11-5.1,30.8-11.6,45.4-5.1C464.7,404.1,472.9,424,476.2,434.2z M414.4,315c-8.5-14.7-3.4-35.7,0-45.8c11.9,2.4,31.7,8.9,39.6,22.7c8.5,14.7,3.4,35.7,0,45.8C442.2,335.4,422.5,328.8,414.4,315z M500.8,384c-16.3-4.9-26.7-23.8-31.2-33.5c10.4-6.4,29.3-15,44.5-10.4c16.3,4.9,26.7,23.8,31.2,33.5C535,380.1,516.2,388.7,500.8,384z"/>
<path d="M38.1,107.6l-7.8,49.9c-0.5,3.1,0.8,6.2,3.4,8c2.5,1.8,5.9,2.1,8.7,0.7l45.1-22.9l45.1,22.9c1.2,0.6,2.5,0.9,3.8,0.9c1.8,0,3.5-0.6,4.9-1.6c2.5-1.8,3.8-4.9,3.4-8l-7.8-49.9l35.6-35.8c2.2-2.3,3-5.5,2-8.5c-1-3-3.5-5.2-6.6-5.7l-49.9-8L94.9,4.6C93.5,1.8,90.6,0,87.5,0c-3.2,0-6,1.8-7.5,4.6l-6.2,12.1c-2.1,4.1-0.5,9.2,3.7,11.3c3.3,1.7,7.3,1,9.8-1.6L105,61c1.2,2.4,3.5,4,6.1,4.4l38,6.1L122,98.8c-1.9,1.9-2.8,4.6-2.3,7.2l5.9,38l-34.3-17.4c-2.4-1.2-5.2-1.2-7.5,0L49.4,144l5.9-38c0.4-2.6-0.5-5.3-2.3-7.2L25.9,71.5l38-6.1c2.6-0.4,4.9-2,6.1-4.4l3.6-7.1c2.1-4.1,0.5-9.2-3.7-11.3c-4.1-2.1-9.2-0.5-11.3,3.6l-1.7,3.3l-49.9,8c-3.1,0.5-5.6,2.7-6.6,5.7c-1,3-0.2,6.3,2,8.5L38.1,107.6z"/>
<path d="M427.4,107.6l-7.8,49.9c-0.5,3.1,0.8,6.2,3.4,8c1.5,1.1,3.2,1.6,4.9,1.6c1.3,0,2.6-0.3,3.8-0.9l45.1-22.9l45.1,22.9c2.8,1.4,6.1,1.1,8.7-0.7c2.5-1.8,3.8-4.9,3.4-8l-7.8-49.9l35.6-35.8c2.2-2.3,3-5.5,2-8.5c-1-3-3.5-5.2-6.6-5.7l-49.9-8L484.3,4.6C482.9,1.8,480,0,476.8,0s-6,1.8-7.5,4.6l-3.7,7.3c-2.1,4.1-0.5,9.2,3.6,11.3c1.9,1,4.1,1.1,6,0.6L494.3,61c1.2,2.4,3.5,4,6.1,4.4l38,6.1l-27.1,27.3c-1.9,1.9-2.8,4.6-2.3,7.2l5.9,38l-34.3-17.4c-2.4-1.2-5.2-1.2-7.5,0l-34.4,17.4l5.9-38c0.4-2.6-0.5-5.3-2.3-7.2l-27.1-27.3l38-6.1c2.6-0.4,4.9-2,6.1-4.4l3.7-7.1c2.1-4.1,0.5-9.2-3.6-11.3c-4.1-2.1-9.2-0.5-11.3,3.6l-1.7,3.3l-49.9,8c-3.1,0.5-5.6,2.7-6.6,5.7c-1,3-0.2,6.3,2,8.5L427.4,107.6z"/>
<path d="M234.8,217.5l-7.8,49.9c-0.5,3.1,0.8,6.2,3.4,8c2.5,1.8,5.9,2.1,8.7,0.7l45.1-22.9l45.1,22.9c1.2,0.6,2.5,0.9,3.8,0.9c1.8,0,3.5-0.6,4.9-1.6c2.5-1.8,3.8-4.9,3.4-8l-7.8-49.9l35.6-35.8c2.2-2.3,3-5.5,2-8.5c-1-3-3.5-5.2-6.6-5.7l-49.9-8l-23.1-45c-1.4-2.8-4.3-4.6-7.5-4.6s-6,1.8-7.5,4.6l-4,7.8c-2.1,4.1-0.5,9.2,3.7,11.3c2.1,1.1,4.4,1.2,6.5,0.5l18.9,36.8c1.2,2.4,3.5,4,6.1,4.4l38,6.1L319,208.7c-1.9,1.9-2.8,4.6-2.3,7.2l5.9,38l-34.3-17.4c-2.4-1.2-5.2-1.2-7.5,0l-34.3,17.4l5.9-38c0.4-2.6-0.5-5.3-2.3-7.2L223,181.4l38-6.1c2.6-0.4,4.9-2,6.1-4.4l3.3-6.4c2.1-4.1,0.5-9.2-3.7-11.3c-4.1-2.1-9.2-0.5-11.3,3.7l-1.3,2.6l-49.9,8c-3.1,0.5-5.6,2.7-6.6,5.7c-1,3-0.2,6.3,2,8.5L234.8,217.5z"/>
</svg>