<svg xmlns="http://www.w3.org/2000/svg" width="565" height="500" viewBox="0 0 565 500">
<style type="text/css">.st0{fill:#C6C3CB;}.st1{fill:#57545C;}.st2{fill:#494949;}.st3{opacity:0.34;fill:#2F2D30;enable-background:new;}.st4{fill:#3C66B1;}.st5{fill:#77757E;}.st6{fill:#2F2D30;}</style>
<path class="st0" d="M188.8,240.1H243h40.7h119.8v158.8c0,9.6-7.6,17.4-17,17.4H79.9c-12.7,0-22.9-10.5-22.9-23.5V242.1L188.8,240.1z"/>
<path class="st1" d="M351,492.6H100.5v-37.1c0-21.6,17.5-39.1,39.1-39.1H351V492.6z"/>
<polygon class="st2" points="328.4,416.3 328.4,470 100.5,470 100.5,492.6 351,492.6 351,416.3 "/>
<g><path class="st0" d="M191.6,450.5h-43.7c-4.1,0-7.4-3.3-7.4-7.4c0-4.1,3.3-7.4,7.4-7.4h43.7c4.1,0,7.4,3.3,7.4,7.4	C199,447.2,195.7,450.5,191.6,450.5z"/><path class="st0" d="M191.6,472.9h-43.7c-4.1,0-7.4-3.3-7.4-7.4c0-4.1,3.3-7.4,7.4-7.4h43.7c4.1,0,7.4,3.3,7.4,7.4	C199,469.6,195.7,472.9,191.6,472.9z"/><polygon class="st0" points="489.5,393.6 436.5,363.9 436.5,284.7 489.5,255 	"/></g>
<path class="st1" d="M420,388.9L420,388.9c-9.1,0-16.5-7.4-16.5-16.5v-96.4c0-9.1,7.4-16.5,16.5-16.5l0,0c9.1,0,16.5,7.4,16.5,16.5v96.4C436.5,381.5,429,388.9,420,388.9z"/>
<path class="st3" d="M436.5,339.5c0,9.1-7.4,16.5-16.5,16.5l0,0c-9.1,0-16.5-7.4-16.5-16.5v33c0,9.1,7.4,16.5,16.5,16.5l0,0c9.1,0,16.5-7.4,16.5-16.5v-8.6l53.1,29.7v-33l-53.1-29.7V339.5z"/>
<g><polygon class="st4" points="179.6,285.3 218.6,285.3 218.6,372.5 110.9,372.5 110.9,285.3 140,285.3 	"/><circle class="st4" cx="257.9" cy="324.3" r="14.9"/><circle class="st4" cx="308.3" cy="324.3" r="14.9"/><circle class="st4" cx="358.6" cy="324.3" r="14.9"/></g>
<path class="st5" d="M76.4,46.6c13.8-6.3,29.3-9.4,45.4-9.4c63.2,0,114.4,51.2,114.4,114.4S184.9,266,121.8,266S7.4,214.8,7.4,151.6c0-32,13.1-60.8,34.2-81.6C41.7,70,55.8,56.2,76.4,46.6z"/>
<circle class="st1" cx="121.5" cy="151.6" r="74.4"/>
<path class="st4" d="M133.6,37.9c-3.9-0.4-7.8-0.6-11.8-0.6c-4.1,0-8.2,0.2-12.2,0.6V139H8.1c-0.5,4.1-0.7,8.3-0.7,12.6c0,3.8,0.2,7.7,0.6,11.4h101.6v102.3c4,0.4,8.1,0.7,12.2,0.7c4,0,7.9-0.2,11.8-0.6V163h102c0.4-3.8,0.6-7.6,0.6-11.4c0-4.3-0.2-8.5-0.7-12.6H133.6V37.9z"/>
<circle class="st6" cx="121.8" cy="151.6" r="38"/>
<path class="st5" d="M333.6,20.7c13.8-6.3,29.3-9.4,45.4-9.4c63.2,0,114.4,51.2,114.4,114.4S442.2,240.1,379,240.1s-114.4-51.2-114.4-114.4c0-32,13.1-60.8,34.2-81.6C298.9,44.1,313,30.3,333.6,20.7z"/>
<circle class="st1" cx="378.7" cy="125.7" r="74.4"/>
<path class="st4" d="M390.8,12c-3.9-0.4-7.8-0.6-11.8-0.6c-4.1,0-8.2,0.2-12.2,0.6v101.2H265.3c-0.5,4.1-0.7,8.3-0.7,12.6c0,3.8,0.2,7.7,0.6,11.4h101.6v102.3c4,0.4,8.1,0.7,12.2,0.7c4,0,7.9-0.2,11.8-0.6V137.1h102c0.4-3.8,0.6-7.6,0.6-11.4c0-4.3-0.2-8.5-0.7-12.6H390.8V12z"/>
<circle class="st6" cx="379" cy="125.7" r="38"/>
<path d="M147.9,450.5h43.7c4.1,0,7.4-3.3,7.4-7.4c0-4.1-3.3-7.4-7.4-7.4h-43.7c-4.1,0-7.4,3.3-7.4,7.4C140.4,447.2,143.8,450.5,147.9,450.5z"/>
<path d="M493.3,248.5c-2.3-1.3-5.1-1.4-7.4-0.1l-42.3,23.7c-1.9-11.3-11.7-20-23.6-20c-3.2,0-6.3,0.6-9.1,1.8v-9.6c0-1.8-0.6-3.4-1.7-4.7c52.2-13.7,90.8-61.3,90.8-117.8C500,54.6,445.4,0,378.2,0c-24.9,0-48.9,7.5-69.3,21.6c-3.4,2.3-4.2,7-1.9,10.3c2.3,3.4,7,4.2,10.3,1.9c12.8-8.9,27.3-14.8,42.5-17.4v25.6c-30.4,7-54.4,31-61.4,61.4h-25.7c3-17.7,10.4-34.1,21.8-48.4c2.6-3.2,2-7.9-1.2-10.4s-7.9-2-10.4,1.2c-17.2,21.5-26.6,48.5-26.6,76c0,53.2,34.3,98.5,81.9,115.1h-54.7c-4.1,0-7.4,3.3-7.4,7.4s3.3,7.4,7.4,7.4H396v24.4v96.4v26.9c0,5.3-4.3,9.6-9.6,9.6H351H139.6H79.9c-8.6,0-15.5-7-15.5-15.5V259c17.1,9.2,36.7,14.4,57.4,14.4c25.7,0,49.6-8,69.3-21.7H243c4.1,0,7.4-3.3,7.4-7.4s-3.3-7.4-7.4-7.4h-34.3c21.6-22,34.9-52.1,34.9-85.2c0-67.2-54.6-121.8-121.8-121.8c-16.8,0-33,3.4-48.3,10c-3.8,1.6-5.5,6-3.9,9.8c1.6,3.8,6,5.5,9.8,3.9c7.8-3.4,15.8-5.8,24.1-7.2v25.6c-30.4,6.9-54.4,30.6-61.6,60.9H16.5c3.8-21.7,14.3-41.6,30.4-57.4c2.9-2.9,3-7.6,0.1-10.5c-2.9-2.9-7.6-3-10.5-0.1C12.9,87.8,0,118.7,0,151.6c0,40.1,19.5,75.7,49.5,98v143.8c0,16.7,13.6,30.4,30.4,30.4h25.7c-7.7,8.3-12.5,19.5-12.5,31.7v37.1c0,4.1,3.3,7.4,7.4,7.4H351c4.1,0,7.4-3.3,7.4-7.4v-68.8h28.1c13.5,0,24.4-11,24.4-24.4v-4.8c2.8,1.2,5.9,1.8,9.1,1.8c11.9,0,21.7-8.7,23.6-20l42.3,23.7c1.1,0.6,2.4,0.9,3.6,0.9c1.3,0,2.6-0.3,3.8-1c2.3-1.3,3.7-3.8,3.7-6.4V255C497,252.3,495.6,249.9,493.3,248.5z M103.5,216.1c-22.6-6.3-40.3-24.2-46.5-46.7h23c4.5,10.6,13,19.2,23.5,23.9L103.5,216.1L103.5,216.1L103.5,216.1z M125.2,258.5c-1.2,0-2.3,0.1-3.5,0.1c-1.2,0-2.3,0-3.5-0.1v-25.1c1.1,0,2.1,0.1,3.2,0.1c1.3,0,2.5,0,3.8-0.1V258.5L125.2,258.5z M125.2,218.5c-1.2,0.1-2.5,0.1-3.8,0.1c-1.1,0-2.1,0-3.2-0.1V197c1.1,0.1,2.3,0.1,3.5,0.1s2.3-0.1,3.5-0.1V218.5L125.2,218.5L125.2,218.5z M140.1,257v-25.7c30.5-7.1,54.4-31.3,61.2-61.9h25.9C219.8,214,184.6,249.3,140.1,257z M167,147.6h21.3c0.1,1.3,0.1,2.7,0.1,4.1c0,1,0,1.9-0.1,2.9h-21.2c0.1-0.9,0.1-1.9,0.1-2.9C167.2,150.3,167.2,148.9,167,147.6z M186,169.4c-6.2,22.4-23.7,40.1-45.9,46.6v-22.7c10.6-4.7,19-13.2,23.5-23.9H186z M228.7,151.6c0,1,0,1.9,0,2.9h-25.5c0-1,0.1-1.9,0.1-2.9c0-1.4,0-2.7-0.1-4.1h25.4C228.7,148.9,228.7,150.3,228.7,151.6z M140.1,46.3c44.1,7.6,79,42.4,86.9,86.4h-26c-7.1-30-30.9-53.7-61-60.7V46.3L140.1,46.3z M140.1,87.3c21.9,6.3,39.2,23.6,45.6,45.4h-22.6c-4.6-10.1-12.8-18.2-23-22.7L140.1,87.3L140.1,87.3z M118.3,44.8c1.2,0,2.3-0.1,3.5-0.1c1.2,0,2.3,0,3.5,0.1v25.2c-1.2-0.1-2.5-0.1-3.8-0.1c-1.1,0-2.1,0-3.2,0.1L118.3,44.8L118.3,44.8z M118.3,84.8c1.1,0,2.1-0.1,3.2-0.1c1.3,0,2.5,0,3.8,0.1v21.5c-1.1-0.1-2.3-0.1-3.5-0.1c-1.2,0-2.3,0.1-3.5,0.1V84.8L118.3,84.8z M121.8,121c16.9,0,30.6,13.7,30.6,30.6s-13.7,30.6-30.6,30.6s-30.6-13.7-30.6-30.6S104.9,121,121.8,121z M103.5,87.2v22.9c-10.2,4.5-18.4,12.6-23,22.7H57.3C63.8,110.7,81.3,93.4,103.5,87.2z M54.7,147.6h21.8c-0.1,1.3-0.2,2.7-0.2,4.1c0,1,0,1.9,0.1,2.9H54.6c0-1-0.1-1.9-0.1-2.9C54.5,150.3,54.6,148.9,54.7,147.6z M14.9,151.6c0-1.4,0-2.7,0.1-4.1h24.8c-0.1,1.3-0.1,2.7-0.1,4.1c0,1,0,1.9,0.1,2.9H14.9C14.9,153.6,14.9,152.6,14.9,151.6z M16.3,169.4h25.3c6.8,30.8,31.1,55.1,61.8,62.1V257C59,249.3,23.8,214,16.3,169.4z M343.6,485.1H107.9v-29.7c0-17.5,14.2-31.7,31.7-31.7h204V485.1z M485.1,121.8c0,1.2,0,2.3-0.1,3.5h-25.2c0-1.2,0.1-2.3,0.1-3.5c0-1.2,0-2.3-0.1-3.5h25.2C485.1,119.5,485.1,120.6,485.1,121.8z M396.5,16.4c44.3,7.7,79.4,42.7,87,87h-25.6c-7-30.4-31-54.4-61.4-61.4L396.5,16.4L396.5,16.4z M423.5,125.2c0.1-1.1,0.1-2.3,0.1-3.5s-0.1-2.3-0.1-3.5h21.6c0.1,1.1,0.1,2.3,0.1,3.5c0,1.2,0,2.3-0.1,3.5H423.5z M442.6,140.1c-6.3,22.2-23.9,39.7-46.1,46.1v-22.8c10.4-4.6,18.7-12.9,23.3-23.3H442.6L442.6,140.1z M396.5,57.4c22.2,6.3,39.7,23.9,46.1,46.1h-22.8c-4.6-10.4-12.9-18.7-23.3-23.3V57.4L396.5,57.4z M374.7,14.9c1.2,0,2.3-0.1,3.5-0.1c1.2,0,2.3,0,3.5,0.1v25.2c-1.2,0-2.3-0.1-3.5-0.1c-1.2,0-2.3,0-3.5,0.1V14.9z M374.7,54.9c1.1-0.1,2.3-0.1,3.5-0.1c1.2,0,2.3,0,3.5,0.1v21.6c-1.1-0.1-2.3-0.1-3.5-0.1c-1.2,0-2.3,0.1-3.5,0.1V54.9z M359.9,57.4v22.8c-10.4,4.6-18.7,12.9-23.3,23.3h-22.8C320.2,81.3,337.7,63.7,359.9,57.4z M311.4,118.3h21.6c-0.1,1.1-0.1,2.3-0.1,3.5s0.1,2.3,0.1,3.5h-21.6c-0.1-1.1-0.1-2.3-0.1-3.5C311.3,120.6,311.3,119.5,311.4,118.3z M271.3,121.8c0-1.2,0-2.3,0.1-3.5h25.1c0,1.2-0.1,2.3-0.1,3.5c0,1.2,0,2.3,0.1,3.5h-25.2C271.3,124.1,271.3,122.9,271.3,121.8z M359.9,227.1c-44.3-7.7-79.4-42.7-87-87h25.6c7,30.4,31,54.4,61.4,61.4L359.9,227.1L359.9,227.1L359.9,227.1z M359.9,186.2c-22.2-6.3-39.7-23.9-46.1-46.1h22.8c4.6,10.4,12.9,18.7,23.3,23.3V186.2z M381.7,228.6c-1.2,0-2.3,0.1-3.5,0.1s-2.3,0-3.5-0.1v-25.2c1.2,0,2.3,0.1,3.5,0.1c1.2,0,2.3,0,3.5-0.1V228.6z M381.7,188.6c-1.1,0.1-2.3,0.1-3.5,0.1c-1.2,0-2.3,0-3.5-0.1v-21.6c1.1,0.1,2.3,0.1,3.5,0.1c1.2,0,2.3-0.1,3.5-0.1V188.6z M378.2,152.4c-16.9,0-30.6-13.7-30.6-30.6s13.7-30.6,30.6-30.6c16.9,0,30.6,13.7,30.6,30.6S395.1,152.4,378.2,152.4z M396.5,227.1v-25.6c30.4-7,54.4-31,61.4-61.4h25.6C475.9,184.4,440.8,219.5,396.5,227.1z M429,284.7v79.2v8.6c0,5-4.1,9.1-9.1,9.1c-5,0-9.1-4.1-9.1-9.1v-96.4c0-5,4.1-9.1,9.1-9.1c5,0,9.1,4.1,9.1,9.1V284.7L429,284.7z M482.1,380.9l-38.2-21.4V289l38.2-21.4V380.9z"/>
<path d="M140,292.7c4.1,0,7.4-3.3,7.4-7.4c0-4.1-3.3-7.4-7.4-7.4h-29.1c-4.1,0-7.4,3.3-7.4,7.4v87.2c0,4.1,3.3,7.4,7.4,7.4h107.8c4.1,0,7.4-3.3,7.4-7.4v-87.2c0-4.1-3.3-7.4-7.4-7.4h-39c-4.1,0-7.4,3.3-7.4,7.4c0,4.1,3.3,7.4,7.4,7.4h31.6v72.3h-92.9v-72.3H140z"/>
<path d="M235.6,324.3c0,12.3,10,22.3,22.3,22.3c12.3,0,22.3-10,22.3-22.3s-10-22.3-22.3-22.3C245.6,301.9,235.6,311.9,235.6,324.3z M257.9,316.8c4.1,0,7.5,3.4,7.5,7.5c0,4.1-3.4,7.5-7.5,7.5s-7.5-3.4-7.5-7.5C250.4,320.1,253.8,316.8,257.9,316.8z"/>
<path d="M330.6,324.3c0-12.3-10-22.3-22.3-22.3c-12.3,0-22.3,10-22.3,22.3s10,22.3,22.3,22.3C320.6,346.6,330.6,336.6,330.6,324.3z M300.8,324.3c0-4.1,3.4-7.5,7.5-7.5c4.1,0,7.5,3.4,7.5,7.5s-3.4,7.5-7.5,7.5C304.1,331.7,300.8,328.4,300.8,324.3z"/>
<path d="M380.9,324.3c0-12.3-10-22.3-22.3-22.3c-12.3,0-22.3,10-22.3,22.3s10,22.3,22.3,22.3C370.9,346.6,380.9,336.6,380.9,324.3z M351.1,324.3c0-4.1,3.4-7.5,7.5-7.5c4.1,0,7.5,3.4,7.5,7.5s-3.4,7.5-7.5,7.5C354.5,331.7,351.1,328.4,351.1,324.3z"/>
<path d="M147.9,472.9h43.7c4.1,0,7.4-3.3,7.4-7.4c0-4.1-3.3-7.4-7.4-7.4h-43.7c-4.1,0-7.4,3.3-7.4,7.4C140.4,469.6,143.8,472.9,147.9,472.9z"/>
</svg>