<svg xmlns="http://www.w3.org/2000/svg" width="565" height="500" viewBox="0 0 565 500">
<style type="text/css">.st0{fill:#CCA400;}.st1{fill:#FFD422;}.st2{opacity:0.17;fill:#663A00;enable-background:new    ;}.st3{opacity:0.48;fill:#CCA400;enable-background:new    ;}.st4{fill:#FFCD00;}.st5{opacity:0.28;}.st6{fill:#FFFFFF;}.st7{opacity:0.41;}</style>
<g><polygon class="st0" points="217.6,253.3 177.4,276.2 97,276.2 56.9,253.3 117.4,206.2 189.3,210.9 	"/><polygon class="st0" points="265.8,101.2 216.5,217.1 57.6,224.3 7.4,101.4 	"/></g>
<path class="st1" d="M180,237.1l-11.6,125.8c-0.6,6.6,4.6,12.2,11.1,12.2l0,0c7.4,0,13.5,6.1,13.5,13.5v26.1c0,7.4-6.1,13.5-13.5,13.5H93.7c-7.4,0-13.5-6.1-13.5-13.5v-26.1c0-7.4,6.1-13.5,13.5-13.5l0,0c6.6,0,11.7-5.6,11.1-12.2l-1.9-20.9l-4.1-45.4l-5.3-59.4l19.6-40.6h59.4L180,237.1z"/>
<path class="st0" d="M210.8,492.6H62.4c-6.4,0-11.6-5.2-11.6-11.6v-41.1c0-6.4,5.2-11.6,11.6-11.6h148.4c6.4,0,11.6,5.2,11.6,11.6V481C222.5,487.4,217.3,492.6,210.8,492.6z"/>
<path class="st2" d="M210.8,492.6H62.4c-6.4,0-11.6-5.2-11.6-11.6v-20.6h171.6V481C222.5,487.4,217.3,492.6,210.8,492.6z"/>
<polygon class="st3" points="191.6,247.9 137.3,263.4 86.5,247.9 86.5,214.1 191.6,214.1 "/>
<polygon class="st4" points="117.2,38.3 136.6,7.4 182.4,80.3 265.8,101.2 210.8,167.3 216.6,253.2 136.7,221.2 56.9,253.3 62.6,167.5 7.4,101.4 90.8,80.3 "/>
<g class="st5"><path class="st6" d="M213.2,87.9l-30.8-7.8L136.6,7.3l-19.4,30.9l-26.4,42L7.4,101.3l55.2,66l-0.6,9.6	C108.9,171.7,170.4,151.6,213.2,87.9z"/></g>
<g class="st7"><path class="st0" d="M80.2,404.6v12.3c0,7.4,6.1,13.5,13.5,13.5h85.9c7.4,0,13.5-6.1,13.5-13.5v-12.3H80.2z"/></g>
<path d="M272.7,104.1c0.1-0.1,0.1-0.3,0.2-0.4c0-0.1,0.1-0.1,0.1-0.2c0.1-0.3,0.2-0.6,0.2-0.8c0-0.1,0-0.1,0-0.1c0.1-0.3,0.1-0.5,0.1-0.8c0-0.1,0-0.1,0-0.2c0-0.3,0-0.4,0-0.7c0-0.1,0-0.1,0-0.3c0-0.3-0.1-0.6-0.1-0.8v-0.1c-0.1-0.3-0.1-0.6-0.2-0.8v-0.1c0-0.1-0.1-0.1-0.1-0.2c-0.1-0.2-0.1-0.4-0.3-0.6c-0.1-0.1-0.1-0.2-0.1-0.3c-0.1-0.3-0.3-0.4-0.4-0.6l-0.1-0.1c-0.1-0.3-0.3-0.5-0.5-0.7c-0.1-0.1-0.1-0.1-0.1-0.1c-0.1-0.2-0.3-0.3-0.4-0.5c-0.1-0.1-0.1-0.1-0.2-0.2c-0.2-0.1-0.3-0.3-0.5-0.4c-0.1-0.1-0.1-0.1-0.1-0.1c-0.3-0.2-0.5-0.3-0.8-0.4c0,0-0.1,0-0.1-0.1c-0.2-0.1-0.4-0.2-0.6-0.3c-0.1,0-0.1,0-0.1-0.1c-0.1-0.1-0.2-0.1-0.3-0.1c-0.2-0.1-0.4-0.1-0.6-0.2c-0.1,0-0.1,0-0.1-0.1L191,74.7l10.9-8.1c3.3-2.4,4-7.1,1.6-10.4c-2.4-3.3-7.1-4-10.4-1.6l-12.3,9.1L142.9,3.4c-1.4-2.2-3.8-3.4-6.3-3.4l0,0c-2.6,0-4.9,1.3-6.3,3.5l-19.4,30.9c-2.2,3.5-1.1,8.1,2.3,10.3c3.5,2.2,8.1,1.1,10.3-2.3l13.1-20.9l32.3,51.3l-97.4,71.7c-3.3,2.4-4,7.1-1.6,10.4c1.4,2,3.7,3,6,3c1.5,0,3.1-0.5,4.4-1.4l96.8-71.2c1,1.1,2.3,1.9,3.8,2.3l72,18.1l-47.5,57c-1.3,1.4-1.8,3.4-1.7,5.3l5,74.1l-68.9-27.6c-1.8-0.7-3.8-0.7-5.5,0L65.1,242l1.7-25.7l124.6-93c3.3-2.4,3.9-7.1,1.5-10.4c-2.4-3.3-7.1-3.9-10.4-1.5L68.1,196.8L70,168c0.1-1.9-0.5-3.8-1.7-5.3l-47.6-56.9l71.9-18.3c4-1,6.4-5.1,5.4-9c-1-4-5.1-6.4-9-5.4L5.6,94.2c-2.5,0.6-4.4,2.5-5.3,4.9c-0.6,2-0.4,4.1,0.6,5.9c0.1,0.3,0.2,0.6,0.3,0.9l44.1,108l-17.4,12.9c-3.3,2.4-3.9,7.1-1.5,10.4c1.4,1.9,3.7,3,5.9,3c1.6,0,3.1-0.5,4.4-1.5L51.1,228l-1.6,24.8c0,0.1,0,0.1,0,0.1c0,0.3,0,0.5,0,0.8c0,0.1,0,0.1,0,0.1c0,0.3,0.1,0.6,0.1,0.9c0,0.1,0,0.1,0.1,0.2c0.1,0.2,0.1,0.4,0.2,0.6c0,0.1,0.1,0.2,0.1,0.3c0.1,0.2,0.1,0.4,0.3,0.6c0,0.1,0.1,0.1,0.1,0.2c0.1,0.3,0.3,0.5,0.4,0.8c0,0,0,0,0,0.1c0.1,0.3,0.3,0.4,0.5,0.6c0.1,0.1,0.1,0.1,0.1,0.2c0.1,0.2,0.3,0.3,0.4,0.5c0.1,0.1,0.1,0.1,0.1,0.1c0.2,0.2,0.4,0.4,0.6,0.5c0,0,0.1,0,0.1,0.1l0,0c0.2,0.1,0.4,0.3,0.7,0.4L90,280.7l1.5,16.6c0.4,3.9,3.6,6.8,7.4,6.8c0.3,0,0.4,0,0.7,0c4.1-0.4,7.1-4,6.8-8.1l-4.8-52.6l35.2-14.1l35.1,14l-10.7,119.1c-0.4,5.2,1.3,10.4,4.8,14.2c3.5,3.8,8.5,6.1,13.7,6.1c3.3,0,6.1,2.7,6.1,6.1v26.1c0,3.3-2.7,6.1-6.1,6.1H93.7c-3.3,0-6.1-2.7-6.1-6.1v-26.1c0-3.3,2.7-6.1,6.1-6.1c5.2,0,10.2-2.2,13.7-6.1c3.5-3.8,5.3-9,4.8-14.2l-1.9-20.9c-0.4-4.1-4-7.1-8.1-6.8c-4.1,0.4-7.1,4-6.8,8.1l1.9,20.9c0.1,1.4-0.6,2.4-0.9,2.9c-0.4,0.4-1.3,1.2-2.8,1.2c-11.5,0-20.9,9.4-20.9,20.9v26.1c0,2.1,0.3,4.1,0.9,6.1H50.8c-4.1,0-7.4,3.3-7.4,7.4v64.4c0,4.1,3.3,7.4,7.4,7.4h171.6c4.1,0,7.4-3.3,7.4-7.4v-64.4c0-4.1-3.3-7.4-7.4-7.4h-22.9c0.6-1.9,0.9-3.9,0.9-6.1v-26.2c0-11.5-9.4-20.9-20.9-20.9c-1.4,0-2.3-0.8-2.8-1.2c-0.4-0.4-1.1-1.4-0.9-2.9l7.4-82.2l38.1-21.7c3.6-2,4.8-6.6,2.8-10.1c-0.1-0.2-0.2-0.3-0.3-0.4l-1.8-27c0.6-0.6,1-1.3,1.4-2.1L272.7,104.1z M53.4,194.3l-21-51.6L55,169.9L53.4,194.3z M88.4,262.7l-14.4-8.3l13.3-5.3L88.4,262.7z M215,485.2H58.2v-49.5h35.4h85.9H215V485.2L215,485.2z M186.1,249l14.1,5.6l-15.4,8.8L186.1,249z M218.4,169.8l20.8-25l-19.4,45.6L218.4,169.8z"/>
</svg>