<svg xmlns="http://www.w3.org/2000/svg" width="565" height="500" viewBox="0 0 565 500">
<style type="text/css">.st0{fill:#FF5023;}.st1{opacity:0.4;fill:#AB2300;enable-background:new;}.st2{fill:#FFCD00;}.st3{fill:#AB2300;}.st4{fill:#CCA400;}</style>
<polygon class="st0" points="360.8,328.8 329.3,269.7 134.1,269.7 102.2,329.4 61.4,406.1 15.3,492.6 448,492.6 402.1,406.4 "/>
<polygon class="st1" points="402.1,406.4 360.8,328.8 329.3,269.7 279.8,269.7 291.9,292.3 333.2,369.9 379.1,456.1 34.8,456.1 15.3,492.6 448,492.6 "/>
<path class="st2" d="M391.9,181.3V66.4h27.7v267.4c0,8.9,4.8,17.1,12.5,21.5l22.4,12.7v13H357v-13l22.4-12.7c7.7-4.4,12.5-12.6,12.5-21.5V240L391.9,181.3L391.9,181.3z"/>
<path class="st3" d="M70,121.7c88.1,88.1,233.9,88.1,322,0V91c-88.1,88.1-233.9,88.1-322,0C70,91,70,121.7,70,121.7z"/>
<path class="st2" d="M42.4,139.4V65.8h27.7v268c0,8.9,4.8,17.1,12.5,21.5L105,368v13H7.4v-13l22.4-12.7c7.7-4.4,12.5-12.6,12.5-21.5V200.4V139.4z"/>
<g><path class="st4" d="M42.4,77.9c4.2,2,8.9,3.2,13.9,3.2c5,0,9.7-1.1,13.9-3.2V65.8H42.4V77.9z"/><path class="st4" d="M391.9,77.9c4.2,2,8.9,3.2,13.9,3.2c5,0,9.7-1.1,13.9-3.2V65.8h-27.7L391.9,77.9L391.9,77.9z"/></g>
<g><path class="st2" d="M405.8,7.4c17.5,0,31.7,14.2,31.7,31.7s-14.2,31.7-31.7,31.7s-31.7-14.2-31.7-31.7c0-5.9,1.6-11.4,4.4-16.1	C378.5,23,387.8,7.4,405.8,7.4z"/><path class="st2" d="M56.2,7.4c17.5,0,31.7,14.2,31.7,31.7S73.7,70.7,56.2,70.7S24.6,56.6,24.6,39.1c0-4.3,0.9-8.4,2.4-12.1	C27,27,33,7.4,56.2,7.4z"/></g>
<path d="M56.2,78.2c-21.5,0-39.1-17.5-39.1-39.1c0-5.2,1-10.2,3-14.9c1.6-3.8,5.9-5.6,9.7-4s5.6,5.9,4,9.7c-1.2,2.9-1.8,6.1-1.8,9.3c0,13.4,10.9,24.2,24.2,24.2s24.2-10.9,24.2-24.2S69.6,14.8,56.2,14.8c-4.1,0-7.4-3.3-7.4-7.4S52.1,0,56.2,0c21.5,0,39.1,17.5,39.1,39.1S77.8,78.2,56.2,78.2z"/>
<path d="M105,388.4H7.4c-4.1,0-7.4-3.3-7.4-7.4v-13c0-2.7,1.4-5.1,3.8-6.5l22.4-12.7c5.4-3.1,8.7-8.8,8.7-15V200.4c0-4.1,3.3-7.4,7.4-7.4s7.4,3.3,7.4,7.4v133.4c0,11.5-6.2,22.2-16.3,27.9l-18.7,10.6v1.2h82.8v-1.2l-18.7-10.6c-10-5.7-16.3-16.4-16.3-27.9V68.6c0-4.1,3.3-7.4,7.4-7.4s7.4,3.3,7.4,7.4v265.2c0,6.2,3.4,12,8.7,15l22.4,12.7c2.3,1.3,3.8,3.8,3.8,6.5v13C112.5,385,109.1,388.4,105,388.4z"/>
<path d="M42.4,146.8c-4.1,0-7.4-3.3-7.4-7.4V68.6c0-4.1,3.3-7.4,7.4-7.4s7.4,3.3,7.4,7.4v70.7C49.8,143.5,46.5,146.8,42.4,146.8z"/>
<path d="M405.8,78.2c-21.5,0-39.1-17.5-39.1-39.1c0-7,1.9-13.9,5.4-19.9c2.1-3.5,6.6-4.7,10.2-2.6s4.7,6.6,2.6,10.2c-2.2,3.7-3.4,8-3.4,12.3c0,13.4,10.9,24.2,24.2,24.2S430,52.4,430,39.1s-10.9-24.2-24.2-24.2c-4.1,0-7.4-3.3-7.4-7.4s3.3-7.4,7.4-7.4c21.5,0,39.1,17.5,39.1,39.1S427.3,78.2,405.8,78.2z"/>
<path d="M454.6,388.4H357c-4.1,0-7.4-3.3-7.4-7.4v-13c0-2.7,1.4-5.1,3.8-6.5l22.4-12.7c5.4-3.1,8.7-8.8,8.7-15V240c0-4.1,3.3-7.4,7.4-7.4c4.1,0,7.4,3.3,7.4,7.4v93.8c0,11.5-6.2,22.2-16.3,27.9l-18.7,10.6v1.2h82.8v-1.2l-18.7-10.6c-10-5.7-16.3-16.4-16.3-27.9V68.6c0-4.1,3.3-7.4,7.4-7.4c4.1,0,7.4,3.3,7.4,7.4v265.2c0,6.2,3.4,12,8.7,15l22.4,12.7c2.3,1.3,3.8,3.8,3.8,6.5v13C462,385,458.7,388.4,454.6,388.4z"/>
<path d="M391.9,188.7c-4.1,0-7.4-3.3-7.4-7.4V68.6c0-4.1,3.3-7.4,7.4-7.4c4.1,0,7.4,3.3,7.4,7.4v112.6C399.4,185.4,396,188.7,391.9,188.7z"/>
<path d="M448,500H15.3c-2.6,0-5-1.4-6.4-3.6c-1.3-2.2-1.4-5-0.2-7.3l46.1-86.5c1.9-3.6,6.4-5,10-3.1c3.6,1.9,5,6.4,3.1,10l-40.2,75.5h408l-40.1-75.3c-1.9-3.6-0.6-8.1,3.1-10c3.6-1.9,8.1-0.6,10,3.1l45.9,86.2c1.2,2.3,1.2,5.1-0.2,7.3C453,498.6,450.6,500,448,500z"/>
<path d="M102.2,336.8c-1.2,0-2.4-0.3-3.5-0.9c-3.6-1.9-5-6.4-3.1-10l31.8-59.7c1.3-2.4,3.8-3.9,6.5-3.9h195.2c2.7,0,5.3,1.5,6.5,3.9l31.5,59.1c1.9,3.6,0.6,8.1-3.1,10c-3.6,1.9-8.1,0.6-10-3.1l-29.4-55.2H138.5l-29.7,55.8C107.5,335.4,104.9,336.8,102.2,336.8z"/>
<path d="M231.7,195.1c-62.2,0-120.7-24.2-164.7-68.2c-1.4-1.4-2.2-3.3-2.2-5.2V91c0-3,1.8-5.7,4.6-6.9c2.8-1.1,6-0.5,8.1,1.6c85.1,85.1,223.5,85.1,308.5,0c2.1-2.1,5.3-2.8,8.1-1.6c2.8,1.1,4.6,3.9,4.6,6.9v30.7c0,2-0.8,3.9-2.2,5.2C352.4,170.9,293.9,195.1,231.7,195.1z M79.6,118.6c84.5,82.2,219.7,82.2,304.2,0V108c-42.3,36.5-95.6,56.5-152.1,56.5S121.9,144.6,79.6,108L79.6,118.6L79.6,118.6z"/>
</svg>