<svg xmlns="http://www.w3.org/2000/svg" width="565" height="500" viewBox="0 0 565 500">
<style type="text/css">.st0{fill:#6EC17D;}.st1{fill:#F1D0A5;}.st2{fill:#F1B986;}.st3{fill:#DFEAEF;}.st4{fill:#B4D0D5;}.st5{fill:#665E66;}.st6{fill:#454045;}.st7{fill:#AA593D;}.st8{fill:#934D36;}.st9{fill:#F4DD45;}.st10{fill:#ECC32E;}</style>
<g><g><path class="st0" d="M181.3,337.8h287.4c15.5,0,28.1-12.6,28.1-28.1v-249c0-15.5-12.6-28.1-28.1-28.1H181.3c-15.5,0-28.1,12.6-28.1,28.1v249C153.2,325.2,165.8,337.8,181.3,337.8L181.3,337.8z"/><g><path class="st1" d="M60.3,404.2c0,0-23.2,6.9-31.1-1s0-28.3,0-28.3l39.3-16.1L60.3,404.2z"/><path class="st2" d="M49,406.5c-7.1,0.9-15.6,0.9-19.8-3.4c-7.9-7.9,0-28.3,0-28.3l11.2-4.6l7.1,4.6	C47.5,374.8,35.5,395,49,406.5z"/><path class="st3" d="M193.6,253.2c39.7,13.6,82,22.1,82,22.1l1.6,21.2c-25.1,15.1-92.2,8-92.2,8s14.6,23.2,17.7,54.3l1.3,16.1	c0,0,4.9,55.7-10.7,95.8h-48.9c0,0,12.3-56.8-12-81.1c-24.3,24.3-12,81.1-12,81.1H71.5c-15.6-40.1-10.7-95.8-10.7-95.8H29.2	c0-88.1,35.8-117.2,42-121.6"/><path class="st4" d="M158.6,256.4l13.1,32.3l-39.3-10.1l-39.3,10.1l13.1-32.3"/><path class="st5" d="M193.3,470.5l-3.5,7.1l-45.3-7.1c0,0,12.2-56.8-12-81.1c-24.3,24.3-12,81.1-12,81.1H71.5	c-15.6-40.1-10.7-95.8-10.7-95.8c0-5.5,0.5-11,1.3-16.1h140.7l1.3,16.1C204,374.8,208.9,430.5,193.3,470.5L193.3,470.5z"/><path class="st4" d="M87.9,253.2c-14.6,19.7-41.1,63.5-40.4,121.6H29.2c0-88.1,35.8-117.2,42-121.6H87.9z"/><path class="st6" d="M86,470.5L77,482l-5.5-11.5c-15.6-40.1-10.7-95.8-10.7-95.8c0-5.5,0.5-11,1.3-16.1h23.2	C80.3,377.1,74.2,415.3,86,470.5z"/><path class="st6" d="M157.2,470.5h-12.8c0,0,12.3-56.8-12-81.1C157.2,389.5,169.9,432.1,157.2,470.5z"/><path class="st7" d="M56.9,493.6h63.5v-23H79.9C67.2,470.5,56.9,480.8,56.9,493.6z"/><path class="st8" d="M94.5,470.5c-12.7,0-23,10.3-23,23H56.9c0-12.7,10.3-23,23-23H94.5z"/><path class="st7" d="M207.9,493.6h-63.5v-23h40.5C197.6,470.5,207.9,480.8,207.9,493.6L207.9,493.6z"/><path class="st1" d="M312.2,286.3v7.9c0,6.1-4.9,11-11,11h-14.5c-6.1,0-11-4.9-11-11v-19h25.5	C307.2,275.2,312.2,280.2,312.2,286.3z"/><path class="st2" d="M294.7,305.2h-8.1c-6.1,0-11-4.9-11-11v-19h18.3C290.2,286.4,292.1,297.5,294.7,305.2z"/><path class="st2" d="M234.2,183.8h0.1c12.2,0,22.2-9.9,22.2-22.2c0-12.2-9.9-22.2-22.2-22.2c-0.2,0-0.3,0-0.5,0h-203	c-0.2,0-0.3,0-0.5,0c-12.2,0-22.2,9.9-22.2,22.2c0,12.2,9.9,22.2,22.2,22.2h0.1"/><path class="st1" d="M229.1,81.5c-64.5-6.3-129-6.3-193.5,0c-5,40.1-6.5,80.2-4.4,120.3c1.5,29.2,24.9,52.4,54.1,53.8	c31.4,1.5,62.8,1.5,94.2,0c29.2-1.4,52.6-24.6,54.1-53.8C235.6,161.7,234.1,121.6,229.1,81.5L229.1,81.5z"/><path class="st2" d="M35.6,81.5c32.2-3.1,64.5-4.7,96.8-4.7c-16.3,0-32.7,1.6-49,4.7c-2.5,40.5-3.3,81-2.2,121.5	c0.7,26.6,10.4,48.4,23.2,53.3c-6.4-0.2-12.7-0.4-19.1-0.7c-29.2-1.4-52.6-24.6-54.1-53.8C29.1,161.7,30.6,121.6,35.6,81.5z"/><path class="st9" d="M186.1,114.9c-37.1,14.3-89.7,8-116.3-18.5c0,0-6.3,43.1-39,43.1l-14.2,4.8C-21.4-5.1,59.7,34.8,59.7,34.8	c7.7-14.8,18.8-21,30.5-22.5c1-0.1,2.1-0.2,3.1-0.3c0.1,0,0.2,0,0.2,0c8.2-0.4,16.5,1.2,23.9,3.6c2.6,0.8,5,1.7,7.3,2.7	c9.3,3.8,16,8.1,17.5,9c0.2,0.1,0.3,0.2,0.3,0.2c8.3-11,16.3-21,25.1-21c3.6,0,6.1,1.4,7.7,3.6c6.3,8.3,1.1,28.2,0.7,29.8l0,0.1	c0,0,0,0,0-0.1l0-0.1c1.1-2.8,13.7-33.2,36.2-33.2c1.4,0,2.7,0.1,3.8,0.4c16.8,3.7,3.6,33,2.2,36.1l0,0.1c0,0.1-0.1,0.1-0.1,0.2	c0.7-0.9,28.8-36.6,41.3-20.2c0,0,0,0,0,0C272,39.6,223.1,100.5,186.1,114.9L186.1,114.9z"/><g>	<path class="st10" d="M259.4,23L259.4,23c-6.3-6.3-28.2,23.4-41.3,20.2l0.1-0.2c0,0.1-0.1,0.1-0.1,0.2		C218.8,42.3,246.9,6.7,259.4,23z"/>	<path class="st10" d="M216,6.8c-9.5-2.2-18.3,15.9-23.2,28.7c-2.4,6.2-9.8,8.7-15.5,5.2l-1.4-0.8l0,0l0-0.1h0l0-0.1		c1.1-2.8,13.7-33.2,36.2-33.2C213.6,6.5,214.9,6.6,216,6.8z"/>	<path class="st10" d="M90.2,12.3c-27.1,4.8-37.4,67-20.4,84c0,0-6.3,43.1-39,43.1l-14.2,4.8C-21.4-5.1,59.7,34.8,59.7,34.8		C67.4,20,78.5,13.8,90.2,12.3L90.2,12.3z"/>	<path class="st10" d="M175.3,10c-9.5-9.5-15.9,39.4-37.3,47.2C116.5,65,114.5,55,114.5,55v0c10.6-3.9,19.5-16.3,28-27.5		c0,0,0,0,0,0c0.3-0.3,0.5-0.7,0.8-1c0.3-0.4,0.7-0.9,1-1.3c7.7-10.1,15.2-18.7,23.3-18.7C171.1,6.5,173.6,7.8,175.3,10z"/></g><g><circle class="st3" cx="90.8" cy="162.2" r="23.3"/><circle class="st3" cx="173.9" cy="162.2" r="23.3"/></g></g></g>
<g><path d="M156.7,194.5c-3.7-1.7-8-0.2-9.8,3.5c-2.6,5.4-8.1,8.9-14,8.9s-11.5-3.5-14-8.9c-1.7-3.7-6.1-5.2-9.8-3.5c-3.7,1.7-5.2,6.1-3.5,9.8c5,10.5,15.7,17.3,27.3,17.3s22.3-6.8,27.3-17.3C161.9,200.6,160.3,196.2,156.7,194.5L156.7,194.5z"/><path d="M455.3,54.8h-35.6c-3.2,0-6.1,2.1-7,5.2l-15.9,51l-4.5-16.7c-0.9-3.2-3.8-5.4-7.1-5.4h-18c-4.1,0-7.3,3.3-7.3,7.3c0,4.1,3.3,7.3,7.3,7.3h12.3l9.6,35.6c0.8,3.2,3.7,5.4,6.9,5.4c0.1,0,0.1,0,0.1,0c3.2,0,6-2.1,7-5.2l21.9-69.9h30.2c4.1,0,7.3-3.3,7.3-7.3S459.4,54.8,455.3,54.8L455.3,54.8z"/><path d="M466.1,108.5c0.1-0.2,0.1-0.5,0.1-0.7l0.3-2.2c0-0.3,0.1-0.6,0.1-0.9c0-12-9.7-21.7-21.7-21.7c-10.3,0-19.3,7.4-21.3,17.5c-0.8,4,1.8,7.8,5.8,8.6c4,0.8,7.8-1.8,8.6-5.8c0.6-3.3,3.5-5.6,6.9-5.6c3.7,0,6.8,2.9,7,6.6l-0.2,1.2c-0.7,2.6-2.3,5.8-4.7,9.3c-8.9,12.7-14.1,19.6-17,23.3c-3.5,4.6-5.4,7.1-4.2,11.1c0.7,2.4,2.5,4.2,4.9,5c1,0.3,1.8,0.6,12.7,0.6c4.3,0,10.2,0,18.2-0.1c4.1-0.1,7.3-3.4,7.3-7.4c-0.1-4.1-3.4-7.3-7.4-7.3c-4.9,0.1-10.1,0.1-14.6,0.1c3-4,7-9.5,12.1-16.9C462.6,118,465,113,466.1,108.5L466.1,108.5z"/><path d="M467.9,26.1H268.3c-0.5-2.5-1.6-4.7-3.1-6.7c-3.6-4.7-8.4-7.1-14-7.2c-6.4,0-13.2,3.4-19.3,7.9c0-4.3-0.9-8.5-3.1-12c-2.3-3.7-7.1-8.1-16.5-8.1c-11.5,0-20.7,6.1-27.6,13.4c-0.7-2.5-1.8-4.9-3.3-6.9c-3.2-4.2-7.9-6.5-13.6-6.5c-10.5,0-18.7,8.4-26.8,18.6c-3.3-1.9-7.8-4.1-13-6.3c-2.6-1.1-5.2-2-7.8-2.9c-9.5-3-18.4-4.4-26.5-3.9c0,0-0.1,0-0.1,0c-0.1,0-0.1,0-0.2,0c-1.2,0.1-2.4,0.2-3.6,0.3c-13.6,1.7-24.7,8.8-32.6,20.6c-9.3-3.1-27-6.6-40.7,4.6C-2.8,46.8-5.2,83.2,9.4,142.2c-4.7,5.2-7.6,12.1-7.6,19.7c0,13.8,9.6,25.4,22.4,28.6c0.1,4,0.3,7.9,0.5,11.9c1.2,23.2,14.5,42.9,33.7,53.1c-6.2,6.7-14.2,17.5-21,33.8c-1.6,3.7,0.2,8,4,9.6c0.9,0.4,1.9,0.6,2.8,0.6c2.9,0,5.6-1.7,6.8-4.5c8.1-19.4,17.7-29.5,22.6-33.7c3.9,0.9,7.9,1.5,12,1.7c3.5,0.2,6.9,0.3,10.4,0.4l-9.1,22.4c-1,2.6-0.5,5.5,1.3,7.6c1.8,2.1,4.7,3,7.4,2.3l30-7.7v63H71.6c2.1-9.4,4.5-16.1,4.6-16.2c1.4-3.8-0.5-8-4.3-9.5c-3.8-1.4-8,0.5-9.5,4.3c-0.2,0.5-4.6,12.4-6.9,27.6c-0.5,3.4-0.9,6.6-1.1,9.8H37.5c0.4-16.4,2.1-31.7,5.2-45.4c0.9-4-1.6-7.9-5.6-8.8c-4-0.9-7.9,1.6-8.8,5.6c-3.6,16.4-5.5,34.8-5.6,54.5c-2.2,6.1-7.8,24.9,2.1,34.8c4.6,4.6,11.6,6,18.4,6c3.7,0,7.4-0.4,10.6-1c1,16.9,3.6,36.9,9.7,54.8c-8,5.4-13.3,14.7-13.3,25.1c0,4.1,3.3,7.3,7.3,7.3h63.3c4.1,0,7.3-3.3,7.3-7.3v-22.9c0-0.5-0.1-1-0.2-1.5c-2.8-13-6.5-47.3,4.8-67.1c11.3,19.8,7.6,54.1,4.8,67.1c-0.1,0.5-0.2,1-0.2,1.6v22.9c0,4.1,3.3,7.3,7.3,7.3h63.3c4.1,0,7.3-3.3,7.3-7.3c0-10.4-5.3-19.6-13.3-25.1c13.9-40.4,9.6-91.6,9.4-93.8l-1.3-16c0-0.1,0-0.1,0-0.2c-0.4-4.4-1.1-8.7-1.9-12.7h188.3c4.1,0,7.3-3.3,7.3-7.3c0-4.1-3.3-7.3-7.3-7.3h-192c-2.1-6.9-4.5-12.8-6.7-17.6c6.3,0.4,14.3,0.7,23,0.7c22.6-0.1,40-2.4,52-6.9c2,2.2,4.5,3.9,7.3,4.9l-2.3,7.9c-1.1,3.9,1.1,8,5,9.1c0.7,0.2,1.4,0.3,2,0.3c3.2,0,6.1-2.1,7.1-5.3l3.1-10.8h5.8c10.1,0,18.4-8.2,18.4-18.4v-7.9c0-7.8-4.9-14.4-11.8-17.1l41.3-144.8c1.1-3.9-1.1-8-5-9.1c-3.9-1.1-8,1.1-9.1,5l-42.1,147.6h-16.4c-4.7-1-32.7-6.9-62.8-16c15.9-10.9,26.5-28.8,27.5-49.4c0.2-4,0.4-7.9,0.5-11.9c12.9-3.2,22.4-14.8,22.4-28.6c0-14-9.8-25.7-22.9-28.7c-0.8-15.6-2.1-31.2-3.9-46.6c14.5-15.6,26-32.9,29.9-45.8h200.8c11.4,0,20.6,9.3,20.6,20.6v248.1c0,11.4-9.3,20.6-20.6,20.6H426c-4.1,0-7.3,3.3-7.3,7.3s3.3,7.3,7.3,7.3h41.9c19.5,0,35.3-15.9,35.3-35.3V61.4C503.3,41.9,487.4,26.1,467.9,26.1L467.9,26.1z M223.8,99.6c1.2,12.1,2.1,24.3,2.7,36.5l-24,14.7c-4.6-11.1-15.5-18.9-28.3-18.9c-14.3,0-26.4,9.9-29.7,23.2h-23.4c-3.3-13.3-15.4-23.2-29.7-23.2c-12.7,0-23.7,7.8-28.3,18.9L50,142.7c13-6.9,20.8-20.6,24.8-32.6c13,9.3,29.8,15.8,48.6,18.5c22.8,3.4,46.1,1.1,65.6-6.4C200.4,117.8,212.6,109.5,223.8,99.6z M190.1,162.5c0,8.8-7.1,15.9-15.9,15.9c-8.8,0-15.9-7.1-15.9-15.9c0-8.8,7.1-15.9,15.9-15.9C183,146.6,190.1,153.7,190.1,162.5z M107.4,162.5c0,8.8-7.1,15.9-15.9,15.9s-15.9-7.1-15.9-15.9c0-8.8,7.1-15.9,15.9-15.9S107.4,153.7,107.4,162.5z M16.5,161.9c0-5.5,3.1-10.4,7.6-12.9c-0.2,8.5-0.3,17.1-0.2,25.6C19.5,172.1,16.5,167.4,16.5,161.9L16.5,161.9z M106,277.8l5.7-14c4.6,0.1,9.3,0.2,13.9,0.2v8.8L106,277.8z M154.1,263.8l5.7,14l-19.5-5V264C144.8,264,149.5,263.9,154.1,263.8z M35.3,397.4c-2.1-2.1-1.6-9.1,0.1-15.7h18.3c-0.2,4.2-0.3,9.7-0.3,16.2C44.7,399.6,37.2,399.2,35.3,397.4z M66.8,485.3c2.6-4.9,7.8-8.2,13.7-8.2h33.1v8.2H66.8z M152.2,485.3v-8.2h33.1c5.9,0,11.1,3.3,13.7,8.2H152.2z M153.5,462.4c0.8-6,1.7-14.5,1.7-24c0-24.8-5.8-43.2-17.2-54.7c-1.4-1.4-3.2-2.2-5.2-2.2c-1.9,0-3.8,0.8-5.2,2.2c-11.5,11.5-17.3,29.9-17.2,54.7c0,9.4,0.9,18,1.7,24l-34.8,0c-12.4-36.6-8.3-93.7-8.1-96.8h126.9l0.7,9.3c0,0.5,4.2,50-8.5,87.4L153.5,462.4z M304.6,294c0,2-1.6,3.7-3.7,3.7h-11.4c0,0-0.1,0-0.1,0h-2.9c-2,0-3.7-1.6-3.7-3.7v-11.5H301c2,0,3.7,1.6,3.7,3.7L304.6,294z M268.2,281.1v11.3c-10.1,3.9-26.2,6-47.2,6.1c-18.8,0.1-34.8-1.6-34.9-1.6c-2.8-0.3-5.5,1-7,3.4c-1.5,2.4-1.5,5.4,0,7.8c0.1,0.2,11.2,18.1,15.4,42.9h-54.3v-63l30,7.7c0.6,0.2,1.2,0.2,1.8,0.2c2.1,0,4.1-0.9,5.5-2.5c1.8-2.1,2.3-5,1.3-7.6l-9.1-22.4c3.5-0.1,6.9-0.3,10.4-0.4c4.7-0.2,9.2-0.9,13.5-2.1C223.9,271,255.4,278.3,268.2,281.1L268.2,281.1z M226.3,201.6c-1.3,25.4-21.5,45.5-46.9,46.6c-30.9,1.5-62.3,1.5-93.2,0c-25.4-1.2-45.6-21.3-46.9-46.6c-0.8-16.1-1.1-32.4-0.7-48.6l22.5,13.8c2.1,14.8,14.9,26.3,30.3,26.3c14.3,0,26.4-9.9,29.7-23.2h23.4c3.3,13.3,15.4,23.2,29.7,23.2c15.4,0,28.2-11.5,30.3-26.3L227,153C227.4,169.2,227.1,185.5,226.3,201.6z M249.2,161.9c0,5.4-3,10.2-7.4,12.8c0.1-8.5,0-17.1-0.2-25.6C246.1,151.5,249.2,156.4,249.2,161.9z M253.2,35.9c-6.2,21.9-41.7,61.8-69.5,72.6c-36.3,14-84.7,6.5-108-16.8c-2-2-4.9-2.7-7.5-1.8c-2.6,0.9-4.6,3.2-5,5.9c-0.1,0.4-5.7,36.7-31.5,36.7c0,0,0,0,0,0c-0.2,0-0.3,0-0.5,0c-3.1,0-6,0.5-8.8,1.3c-7.3-31.3-14.1-77.1,3.3-91.3c11.8-9.6,31.3-0.4,31.4-0.3c3.6,1.8,7.9,0.3,9.8-3.2c5.7-11,13.8-17.1,24.7-18.5c0.8-0.1,1.7-0.2,2.5-0.2c0.1,0,0.3,0,0.4,0c6.3-0.3,13.4,0.8,21.1,3.2c2.3,0.7,4.5,1.6,6.8,2.5c3.7,1.5,6.9,3.1,9.6,4.5c-6.4,8.3-12.9,15.9-19.6,18.4c-3.8,1.4-5.8,5.6-4.3,9.4c1.4,3.8,5.6,5.8,9.4,4.3c12-4.4,21.1-16.5,30-28.2c6.6-8.8,14.9-19.7,20.4-19.7c1.4,0,1.6,0.4,1.9,0.7c2.8,3.7,1.5,15.9-0.6,23.3c-1,3.8,1.1,7.7,4.8,8.9c3.7,1.2,7.8-0.7,9.2-4.4c0.1-0.3,11.3-28.5,29.2-28.5c2.2,0,3.5,0.4,4,1.3c2.4,3.8-0.6,16.1-4.8,24.9c-1.6,3.4-0.4,7.4,2.7,9.4c3.2,2,7.4,1.2,9.7-1.7c6.8-8.7,20.1-21.6,27-21.6h0c0.7,0,1.5,0.1,2.4,1.4C254.2,29.1,254.4,31.6,253.2,35.9L253.2,35.9z"/></g></g>
</svg>