<svg xmlns="http://www.w3.org/2000/svg" width="500" height="500" viewBox="0 0 500 500" fill="white"><path d="M0.1,500l33.8-124.2C11.6,337.6-0.1,294.2,0,250C0,111.9,111.9,0,250,0s250,111.9,250,250S388.1,500,250,500c-44.2,0.1-87.6-11.6-125.7-33.9L0.1,500z M159.8,132.7c-3.2,0.2-6.4,1.1-9.3,2.5c-2.7,1.5-5.2,3.5-7.4,5.7c-3,2.8-4.7,5.3-6.5,7.6c-9.2,12-14.2,26.8-14.1,41.9c0,12.2,3.2,24.2,8.2,35.3c10.2,22.5,27.1,46.4,49.3,68.5c5.3,5.3,10.6,10.7,16.2,15.7c27.6,24.3,60.5,41.8,96,51.1l14.2,2.2c4.6,0.3,9.2-0.1,13.9-0.3c7.3-0.4,14.4-2.3,20.8-5.8c4.2-2.2,6.1-3.3,9.6-5.5c0,0,1.1-0.7,3.1-2.2c3.4-2.5,5.5-4.3,8.2-7.2c2.1-2.2,3.9-4.7,5.2-7.6c1.9-4.1,3.9-11.8,4.7-18.3c0.6-4.9,0.4-7.6,0.4-9.3c-0.1-2.7-2.3-5.5-4.8-6.6l-14.6-6.5c0,0-21.8-9.5-35-15.5c-1.4-0.6-2.9-1-4.4-1c-3.5-0.4-6.9,0.8-9.4,3.2v-0.1c-0.1,0-1.8,1.4-19.9,23.3c-2.1,2.9-5.8,4.1-9.2,3.2c-1.6-0.4-3.2-1-4.8-1.6c-3.1-1.3-4.2-1.8-6.3-2.7l-0.1,0c-14.3-6.2-27.5-14.7-39.2-25c-3.2-2.7-6.1-5.7-9.1-8.6c-9.8-9.4-18.4-20.1-25.5-31.7l-1.5-2.4c-1.1-1.6-1.9-3.3-2.6-5.1c-0.9-3.7,1.5-6.6,1.5-6.6s6.1-6.6,8.9-10.2c2.4-3,4.5-6.1,6.6-9.3c2.9-4.7,3.9-9.6,2.3-13.4c-7-17.1-14.2-34.1-21.7-51c-1.5-3.3-5.9-5.8-9.8-6.2c-1.4-0.1-2.7-0.3-4-0.4C166.5,132.4,163.1,132.4,159.8,132.7L159.8,132.7z"/></svg>