<svg xmlns="http://www.w3.org/2000/svg" width="995.8" height="300" viewBox="0 0 995.8 300" fill="rgb(136,181,61)"><path d="M126.3,4.3c-0.5-0.2-1-0.3-1.4-0.3c-1.1-0.3-2.1-0.6-3.2-1c-1-0.2-1.9-0.5-2.9-0.6c-0.6-0.2-1.3-0.3-1.9-0.5c-1.3-0.3-2.5-0.5-3.7-0.6c-0.3,0-0.6-0.2-1.1-0.2c-1.4-0.2-2.7-0.3-4.1-0.5c-0.3,0-0.5,0-0.8-0.2c-1.3-0.2-2.5-0.2-4-0.3c-0.3,0-0.6,0-1,0C100.8,0,99.1,0,97.5,0c-1.8,0-3.3,0-4.9,0.2c-0.3,0-0.6,0-1,0c-1.3,0.2-2.5,0.2-4,0.3c-0.3,0-0.5,0-0.8,0.2c-1.4,0.2-2.7,0.3-4.1,0.5c-0.3,0-0.8,0.2-1.1,0.2c-1.3,0.2-2.5,0.5-3.7,0.6c-0.6,0.2-1.3,0.3-1.9,0.5c-1,0.2-1.9,0.5-2.9,0.6c-1.1,0.3-2.1,0.6-3.2,1c-0.5,0.2-1,0.3-1.4,0.3C28.8,16.6,0,53.7,0,97.3c0,52.9,25.2,103.9,46.4,137.3c22.8,36,45.2,59.4,46.2,60.4l4.8,4.9l4.9-4.8c3.8-3.7,92.7-92.4,92.7-198C194.8,53.7,166,16.7,126.3,4.3z M90.8,193.5c-18.2-3.2-32-19-32-38.1c0-21.3,17.4-38.7,38.7-38.7s38.7,17.4,38.7,38.7c0,20.1-15.3,36.6-34.9,38.6c-1.3,0.2-2.7,0.3-4,0.3c-0.8,0-1.6,0-2.4-0.2h-0.2h-0.2c-0.2,0-0.3,0-0.5,0c-29-1.8-51.9-25.8-51.9-55.3c0-30.6,24.9-55.4,55.4-55.4s55.1,24.9,55.1,55.3c0,29.6-23.3,53.9-52.6,55.3c-0.2,0-0.3,0-0.5,0c24.9-1.3,44.6-21.8,44.6-47c0-26-21-47-47-47s-47,21-47,47c0,24.7,19.1,44.9,43.3,46.8C92.7,193.8,91.8,193.7,90.8,193.5z M100.4,194.2c33.9-1.4,60.9-29.5,60.9-63.6c0-35.2-28.5-63.7-63.7-63.7s-63.7,28.5-63.7,63.7c0,34.3,26.9,62.1,60.9,63.6l0,0c-0.3,0-0.6,0-0.8,0c-38.1-1.9-68.3-33.5-68.3-72c0-39.8,32.2-72,72-72s72,32.2,72,72c0,38.6-30.3,70.1-68.3,72C100.8,194.2,100.5,194.2,100.4,194.2L100.4,194.2z M102,194.2c-0.3,0-0.6,0-0.8,0l0,0c42.7-1.9,76.6-37.1,76.6-80.3c0-44.5-36-80.5-80.5-80.5S17,69.3,17,113.8c0,43.2,33.9,78.4,76.6,80.3l0,0c-0.3,0-0.6,0-0.8,0c-46.8-2.4-84-41.3-84-88.8c0-49.1,39.7-88.7,88.7-88.7s88.7,39.7,88.7,88.7C186.1,152.9,149,191.8,102,194.2z M127.8,163.7c0-15.8-11.9-28.7-27.2-30.3c-1-0.2-2.1-0.2-3-0.2s-2.1,0-3,0.2c-15.3,1.6-27.2,14.5-27.2,30.3c0,16.7,13.5,30.4,30.4,30.4S127.8,180.5,127.8,163.7z"/><path d="M352.1,177.6l-6.1,6.3V100h27.9v83.9l-6.4-6.3h38.7l-6.4,6.3V100h27.9v100H292V100h27.9v83.9l-6.1-6.3H352.1z M475.9,200v-83.9l6.3,6.3h-37V100h89.1v22.4h-36.9l6.3-6.3V200H475.9z M593,184.9L547.2,100h29.9l31.3,64.9L593,184.9z M562.8,177.6c5.6,1.6,10.2,2.1,13.8,1.5c3.6-0.6,6.7-3,9.5-7.1l4.9-7.1l2.4-2.7l31.1-62.1h27.6l-41.4,77.3c-4.1,7.6-9,13.5-14.6,17.7c-5.7,4.2-11.9,6.6-18.6,7.1c-6.8,0.6-13.9-0.7-21.3-3.7L562.8,177.6z M653.7,220.2v-42.6h115.9v42.6h-25.9V200h-64v20.1H653.7z M728.1,187.8v-65.3h-28.7l-0.4,10.9c-0.2,5.8-0.6,11.2-1.1,16.3c-0.5,5-1.2,9.7-2.1,13.9c-0.9,4.2-2.1,7.8-3.6,10.8c-1.5,3-3.3,5.3-5.4,6.9l-30.1-3.6c3.3,0.1,6.1-1,8.2-3.4c2.1-2.3,3.9-5.6,5.1-9.8c1.3-4.2,2.2-9.1,2.9-14.9c0.6-5.7,1.1-12,1.4-18.7l1.1-30.9H756v87.7H728.1z M788.9,200V100h27.9v58.7L858,100h26.6v100h-27.9v-58.6L815.6,200H788.9z M967.9,200v-31l6.7,5.9h-25.3c-9,0-16.7-1.5-23.1-4.4c-6.5-3-11.5-7.2-14.9-12.7c-3.5-5.5-5.2-12.1-5.2-19.7c0-7.9,1.8-14.7,5.5-20.4c3.7-5.7,8.9-10,15.6-13.1c6.7-3,14.6-4.6,23.6-4.6h45v100H967.9z M906.4,200l25-36.1h28.4L936.1,200H906.4z M967.9,160v-44.7l6.7,7h-23.3c-5.5,0-9.7,1.3-12.5,3.8s-4.2,6.4-4.2,11.5c0,5,1.4,8.9,4.2,11.5c2.8,2.6,6.9,3.9,12.2,3.9h23.6L967.9,160z"/></svg>